<?xml version="1.0" encoding="utf-8"?>
<!-- Generator: Adobe Illustrator 24.3.0, SVG Export Plug-In . SVG Version: 6.00 Build 0)  -->
<svg version="1.1" id="Layer_1" xmlns="http://www.w3.org/2000/svg" xmlns:xlink="http://www.w3.org/1999/xlink" x="0px" y="0px"
	 viewBox="0 0 148.59 148.59" style="enable-background:new 0 0 148.59 148.59;" xml:space="preserve">
<style type="text/css">
	.st0{fill:#27316F;stroke:url(#SVGID_1_);stroke-width:0.5;stroke-miterlimit:10;}
	.st1{fill:#27316F;stroke:url(#SVGID_2_);stroke-width:0.5;stroke-miterlimit:10;}
	.st2{fill:#27316F;}
	.st3{fill:#234095;}
	.st4{fill:#FBB040;}
	.st5{fill:#C6C5C5;}
	.st6{fill:#ABB0B1;}
</style>
<g>
	<g>
		
			<linearGradient id="SVGID_1_" gradientUnits="userSpaceOnUse" x1="70.5747" y1="55.3155" x2="65.4082" y2="105.7528" gradientTransform="matrix(1 -4.692423e-03 4.692423e-03 1 -0.4436 0.2105)">
			<stop  offset="0" style="stop-color:#F1B370"/>
			<stop  offset="0.6504" style="stop-color:#C4843A"/>
			<stop  offset="1" style="stop-color:#B2722A"/>
		</linearGradient>
		<path class="st0" d="M86.69,107.24c-0.29-1.89-0.48-3.58-0.81-5.25c-0.69-3.48-1.77-6.82-3.8-9.78c-1.32-1.93-3.07-3.32-5.18-4.28
			c-1.74-0.79-3.46-0.74-5.21-0.01c-2.33,0.96-4.2,2.47-5.72,4.47c-2.43,3.2-3.86,6.85-4.97,10.66c-0.14,0.5-0.32,0.99-0.63,1.51
			c-1.42-4.23-4.24-7.33-7.72-10.16c1.13-1.02,2.16-1.98,3.22-2.91c4.23-3.71,5.54-8.28,4.24-13.72c-0.98-4.09-3.7-5.58-6.86-6.12
			c-2.21-0.37-4.41-0.11-6.59,0.33c-1.05,0.21-2.09,0.47-3.21,0.73c-0.76-1.12-0.5-2.26-0.04-3.34c0.57-1.34,1.5-2.45,2.73-3.25
			c4.35-2.84,9.03-4.66,14.32-4.01c1.92,0.24,3.8,0.9,5.64,1.55c1.45,0.51,2.8,1.31,4.21,1.97c1.93,0.9,3.12,0.72,4.66-0.79
			c1.37-1.33,2.61-2.8,4.03-4.06c2.93-2.58,6.27-4.15,10.3-3.43c2.44,0.44,4.43,1.64,5.86,3.86c-1.34,0.53-2.46,1.25-3.7,1.75
			c-3.16,1.67-4.87,3.99-5.61,7.73c-0.15,1.41-0.19,2.84-0.19,4.27c0.01,1.94,0.73,3.59,2.06,5.01c2.01,2.13,3.42,4.6,4.01,7.49
			c1.04,5.02,1.03,9.98-1.14,14.76C89.73,104.08,88.64,105.83,86.69,107.24z"/>
		
			<linearGradient id="SVGID_2_" gradientUnits="userSpaceOnUse" x1="81.9979" y1="41.0588" x2="76.9523" y2="90.3165" gradientTransform="matrix(0.9974 -0.0717 0.0717 0.9974 -3.6444 5.4741)">
			<stop  offset="0" style="stop-color:#F1B370"/>
			<stop  offset="0.6504" style="stop-color:#C4843A"/>
			<stop  offset="1" style="stop-color:#B2722A"/>
		</linearGradient>
		<path class="st1" d="M72.2,65.49c0.27,0.49,0.92,0.63,1.41,0.35c0.31-0.18,0.44-0.23,0.68-0.41c2.71-2.3,4.56-4.1,7.43-5.61
			c1.36-0.71,2.83-1.3,4.32-1.68c2.33-0.6,4.52,0.04,6.44,1.43c1.45,1.05,1.21,1.98-0.31,2.86c-1.27,0.64-2.54,1.36-3.6,2.29
			c-2.5,2.2-3.23,7.37-2.61,8.51c0.19,0.35,0.47,0.66,0.87,0.65c0,0,0,0,0.01,0c4.07-0.14,7.09,1.67,9.38,4.93
			c2.17,3.09,3.35,6.57,4.07,10.23c0.05,0.23,0.1,0.46,0.15,0.7c0.16,0.71,1.07,0.94,1.55,0.39c0.94-1.05,1.56-2.19,2.1-3.37
			c2.82-6.13,1.97-17.89-4.39-23.09c-0.78-0.64-1.39-1.69-1.68-2.67c-0.93-3.16-0.88-6.37,0.06-9.54c0.51-1.73,1.49-3.13,3.09-4.02
			c1.27-0.71,2.56-1.39,3.89-2.1c0.54-0.29,0.64-1.01,0.2-1.44c-1.98-1.95-4.41-2.82-7.32-2.47c-3.7,0.44-6.52,2.45-8.92,5.17
			c-0.95,1.07-1.83,2.21-2.82,3.24c-1.66,1.72-2.65,1.89-4.81,1c-0.66-0.27-1.31-0.56-1.97-0.85c-5.57-2.47-11.14-2.75-16.75-0.07
			c-2.11,1.01-4.16,2.13-5.8,3.81c-1.41,1.44-2.36,3.08-1.91,5.24c0.1,0.5,0.6,0.82,1.09,0.7C62.87,57.97,68.62,58.85,72.2,65.49z"
			/>
	</g>
	<g>
		<path class="st2" d="M74.3,26.26c26.49,0,48.04,21.55,48.04,48.04s-21.55,48.04-48.04,48.04S26.26,100.78,26.26,74.3
			S47.81,26.26,74.3,26.26 M74.3,24.26c-27.63,0-50.04,22.4-50.04,50.04s22.4,50.04,50.04,50.04s50.04-22.4,50.04-50.04
			S101.93,24.26,74.3,24.26L74.3,24.26z"/>
	</g>
	<g>
		<path class="st2" d="M74.3,4c38.76,0,70.3,31.54,70.3,70.3s-31.54,70.3-70.3,70.3S4,113.06,4,74.3S35.54,4,74.3,4 M74.3,0
			C33.26,0,0,33.26,0,74.3s33.26,74.3,74.3,74.3s74.3-33.26,74.3-74.3S115.33,0,74.3,0L74.3,0z"/>
	</g>
	<g>
		<path class="st3" d="M74.3,4.53c38.47,0,69.76,31.3,69.76,69.76s-31.3,69.76-69.76,69.76S4.53,112.76,4.53,74.3
			S35.83,4.53,74.3,4.53 M74.3,3.53C35.22,3.53,3.53,35.22,3.53,74.3s31.68,70.76,70.76,70.76s70.76-31.68,70.76-70.76
			S113.38,3.53,74.3,3.53L74.3,3.53z"/>
	</g>
	<g>
		<path class="st4" d="M74.3,1.94c39.9,0,72.36,32.46,72.36,72.36s-32.46,72.36-72.36,72.36S1.94,114.2,1.94,74.3
			S34.4,1.94,74.3,1.94 M74.3,1.44C34.06,1.44,1.44,34.06,1.44,74.3s32.62,72.86,72.86,72.86s72.86-32.62,72.86-72.86
			S114.54,1.44,74.3,1.44L74.3,1.44z"/>
	</g>
	<g>
		<g>
			<path class="st2" d="M35.15,97.67c-0.1,0.06-0.2,0.06-0.32,0.01c-0.11-0.06-0.21-0.16-0.3-0.3c-0.35-0.59-0.68-1.2-1-1.82
				c-0.08-0.15-0.12-0.3-0.1-0.43c0.01-0.13,0.07-0.22,0.17-0.27c0.4-0.21,0.81-0.41,1.21-0.62c0.11,0.21,0.22,0.42,0.33,0.63
				c-0.39,0.21-0.78,0.41-1.16,0.62c0.28,0.52,0.56,1.04,0.85,1.54c0.37-0.21,0.74-0.43,1.1-0.64c0.15-0.93,0.33-1.84,0.53-2.74
				c0.04-0.19,0.13-0.31,0.26-0.38c0.32-0.16,0.64-0.33,0.96-0.49c0.1-0.05,0.2-0.05,0.31,0.01c0.11,0.06,0.2,0.15,0.27,0.29
				c0.29,0.54,0.58,1.08,0.89,1.6c0.08,0.13,0.11,0.25,0.09,0.37c-0.01,0.12-0.07,0.2-0.16,0.26c-0.36,0.21-0.71,0.43-1.07,0.64
				c-0.11-0.19-0.23-0.38-0.34-0.57c0.35-0.2,0.69-0.4,1.04-0.61c-0.26-0.46-0.52-0.92-0.77-1.39c-0.33,0.18-0.66,0.35-1,0.53
				c-0.2,0.9-0.37,1.81-0.51,2.74c-0.03,0.18-0.11,0.31-0.23,0.39C35.86,97.25,35.51,97.46,35.15,97.67z"/>
			<path class="st2" d="M37.83,101.1c-0.16,0.12-0.36,0.15-0.59,0.07c-0.23-0.08-0.43-0.24-0.6-0.49c-0.21-0.3-0.42-0.61-0.63-0.92
				c-0.35,0.23-0.7,0.47-1.05,0.7c-0.13-0.19-0.26-0.39-0.38-0.59c1.28-0.83,2.56-1.67,3.85-2.5c0.11,0.18,0.23,0.35,0.35,0.53
				c-0.03,0.02-0.05,0.03-0.08,0.05c0.16,0.2,0.32,0.39,0.48,0.58c0.2,0.24,0.36,0.44,0.46,0.58c0.2,0.28,0.21,0.5,0.01,0.64
				C39.04,100.2,38.44,100.65,37.83,101.1z M37.5,100.52c0.58-0.42,1.16-0.83,1.73-1.25c-0.28-0.37-0.55-0.75-0.82-1.14
				c-0.69,0.46-1.38,0.93-2.07,1.39c0.17,0.26,0.35,0.52,0.52,0.77C37.08,100.6,37.29,100.67,37.5,100.52z"/>
			<path class="st2" d="M41.4,103.12c-0.14-0.15-0.27-0.31-0.4-0.47c0.17-0.15,0.35-0.3,0.52-0.45c-0.25-0.28-0.5-0.57-0.75-0.86
				c-0.75,0.61-1.49,1.22-2.24,1.83c-0.14-0.17-0.28-0.35-0.41-0.52c0.87-0.69,1.74-1.38,2.61-2.07c0.13,0.16,0.26,0.32,0.38,0.48
				c-0.02,0.02-0.05,0.04-0.07,0.06c0.15,0.14,0.29,0.29,0.45,0.43c0.18,0.17,0.32,0.32,0.43,0.44c0.22,0.26,0.24,0.46,0.05,0.63
				C41.77,102.79,41.59,102.96,41.4,103.12z"/>
			<path class="st2" d="M42.64,107.09c-0.18,0.19-0.4,0.16-0.66-0.1c-0.37-0.36-0.74-0.74-1.1-1.12c-0.25-0.27-0.28-0.49-0.09-0.67
				c0.62-0.58,1.24-1.17,1.87-1.75c0.19-0.18,0.4-0.14,0.63,0.11c0.33,0.35,0.67,0.7,1.02,1.03c0.24,0.24,0.27,0.44,0.1,0.63
				c-0.28,0.29-0.55,0.58-0.83,0.87c-0.09-0.01-0.18-0.02-0.26-0.03c-0.42-0.4-0.83-0.82-1.23-1.24c-0.29,0.28-0.58,0.56-0.87,0.84
				c0.32,0.34,0.64,0.67,0.97,0.99c0.14-0.15,0.28-0.29,0.43-0.44c0.15,0.14,0.29,0.29,0.44,0.43
				C42.92,106.8,42.78,106.94,42.64,107.09z M43.29,105.54c0.23-0.24,0.47-0.48,0.7-0.72c-0.31-0.3-0.61-0.62-0.92-0.93
				c-0.24,0.23-0.48,0.46-0.72,0.7C42.66,104.91,42.97,105.23,43.29,105.54z"/>
			<path class="st2" d="M45.42,110.02c-0.16-0.13-0.33-0.26-0.49-0.39c0.02-0.02,0.04-0.05,0.06-0.07
				c-0.21-0.14-0.42-0.28-0.63-0.43c-0.26-0.18-0.46-0.34-0.6-0.46c-0.26-0.23-0.31-0.44-0.15-0.63c0.27-0.3,0.54-0.6,0.81-0.91
				c0.17-0.19,0.38-0.17,0.65,0.06c0.36,0.32,0.73,0.63,1.1,0.93c0.21-0.26,0.42-0.52,0.63-0.78c-0.33-0.27-0.66-0.55-0.98-0.83
				c-0.12,0.14-0.25,0.29-0.37,0.43c-0.15-0.13-0.3-0.26-0.44-0.39c0.12-0.14,0.25-0.28,0.37-0.42c0.17-0.19,0.38-0.18,0.63,0.04
				c0.36,0.31,0.72,0.62,1.09,0.92c0.26,0.21,0.31,0.41,0.15,0.62C46.64,108.49,46.03,109.26,45.42,110.02z M45.2,109.32
				c0.25-0.3,0.5-0.61,0.74-0.91c-0.35-0.29-0.71-0.59-1.05-0.89c-0.26,0.3-0.52,0.6-0.79,0.91
				C44.47,108.72,44.83,109.02,45.2,109.32z"/>
			<path class="st2" d="M48.65,112.36c-0.17-0.11-0.35-0.23-0.52-0.35c0.02-0.03,0.03-0.05,0.05-0.08c-0.6-0.32-0.93-0.51-0.99-0.55
				c-0.22-0.16-0.36-0.34-0.41-0.54c-0.05-0.2-0.02-0.38,0.1-0.54c0.39-0.52,0.78-1.04,1.17-1.56c0.12-0.16,0.3-0.25,0.52-0.25
				c0.22-0.01,0.44,0.07,0.65,0.22c0.26,0.19,0.53,0.37,0.79,0.55c0.38-0.56,0.76-1.12,1.14-1.68c0.15,0.1,0.3,0.21,0.46,0.31
				C50.61,109.38,49.63,110.87,48.65,112.36z M48.36,111.67c0.47-0.69,0.94-1.39,1.41-2.08c-0.22-0.15-0.45-0.31-0.67-0.46
				c-0.27-0.19-0.47-0.18-0.62,0.03c-0.35,0.48-0.7,0.96-1.04,1.44c-0.15,0.21-0.09,0.41,0.2,0.61
				C47.69,111.26,47.94,111.41,48.36,111.67z"/>
			<path class="st2" d="M52.44,109.94c-0.17-0.1-0.33-0.2-0.5-0.3c0.1-0.16,0.2-0.33,0.3-0.49c0.16,0.1,0.33,0.2,0.49,0.29
				C52.63,109.61,52.54,109.78,52.44,109.94z M50.35,113.43c-0.18-0.1-0.35-0.21-0.53-0.32c0.58-0.95,1.16-1.89,1.75-2.84
				c0.16,0.1,0.33,0.2,0.49,0.3C51.49,111.52,50.92,112.47,50.35,113.43z"/>
			<path class="st2" d="M53.87,115.31c-0.19-0.09-0.37-0.18-0.56-0.27c0.44-0.87,0.87-1.74,1.31-2.62
				c-0.39-0.18-0.77-0.37-1.15-0.56c-0.46,0.85-0.92,1.7-1.37,2.55c-0.18-0.1-0.37-0.2-0.55-0.3c0.54-0.97,1.08-1.94,1.62-2.91
				c0.17,0.09,0.34,0.19,0.51,0.28c-0.01,0.03-0.03,0.05-0.04,0.08c0.21,0.09,0.42,0.17,0.64,0.25c0.26,0.1,0.47,0.19,0.63,0.27
				c0.29,0.14,0.38,0.32,0.27,0.55C54.73,113.52,54.3,114.42,53.87,115.31z"/>
			<path class="st2" d="M57.13,117.65c-0.09,0.24-0.31,0.3-0.64,0.17c-0.47-0.18-0.93-0.37-1.4-0.57c-0.34-0.14-0.44-0.37-0.3-0.67
				c0.02-0.04,0.04-0.09,0.08-0.16c0.04-0.07,0.06-0.12,0.07-0.15c0.19,0.08,0.38,0.16,0.57,0.24c-0.06,0.14-0.12,0.27-0.17,0.41
				c0.4,0.17,0.81,0.34,1.22,0.5c0.11-0.27,0.22-0.54,0.32-0.81c-0.32-0.12-0.63-0.25-0.94-0.38c-0.25-0.11-0.44-0.26-0.55-0.46
				c-0.11-0.2-0.12-0.39-0.04-0.58c0.27-0.59,0.53-1.18,0.8-1.78c0.08-0.18,0.22-0.3,0.41-0.36c0.19-0.06,0.4-0.04,0.62,0.05
				c0.06,0.02,0.36,0.19,0.9,0.49c0.01-0.03,0.02-0.06,0.03-0.09c0.18,0.07,0.35,0.14,0.53,0.2
				C58.13,115.03,57.63,116.34,57.13,117.65z M57.02,116.24c0.31-0.78,0.62-1.56,0.93-2.34c-0.42-0.19-0.66-0.3-0.73-0.33
				c-0.29-0.12-0.49-0.07-0.59,0.17c-0.24,0.55-0.47,1.09-0.71,1.64c-0.1,0.23,0,0.42,0.32,0.55
				C56.5,116.03,56.76,116.14,57.02,116.24z"/>
			<path class="st2" d="M65.33,115.62c-0.5,1.03-1.02,2.06-1.57,3.08c-0.18-0.04-0.36-0.08-0.54-0.12
				c-0.02-0.87-0.03-1.74-0.03-2.61c-0.41,0.77-0.83,1.53-1.26,2.29c-0.17-0.05-0.35-0.09-0.52-0.14c0-1.15,0.02-2.3,0.07-3.45
				c0.17,0.05,0.34,0.1,0.51,0.15c-0.05,0.88-0.08,1.75-0.11,2.63c0.43-0.77,0.85-1.54,1.26-2.32c0.16,0.04,0.32,0.08,0.48,0.12
				c-0.01,0.88,0,1.76,0.02,2.64c0.39-0.79,0.78-1.58,1.15-2.38C64.98,115.55,65.15,115.59,65.33,115.62z"/>
			<path class="st2" d="M67.01,115.18c-0.19-0.03-0.37-0.06-0.56-0.09c0.03-0.19,0.07-0.38,0.1-0.57c0.18,0.03,0.37,0.06,0.55,0.09
				C67.07,114.8,67.04,114.99,67.01,115.18z M66.35,119.18c-0.2-0.03-0.4-0.06-0.6-0.1c0.19-1.09,0.38-2.18,0.58-3.28
				c0.18,0.03,0.37,0.06,0.55,0.09C66.71,116.99,66.53,118.09,66.35,119.18z"/>
			<path class="st2" d="M70.25,119.63c-0.2-0.01-0.41-0.03-0.61-0.05c0.09-0.97,0.17-1.94,0.26-2.91c-0.42-0.03-0.84-0.06-1.26-0.1
				c-0.11,0.96-0.23,1.91-0.34,2.87c-0.2-0.02-0.41-0.05-0.61-0.07c0.14-1.1,0.29-2.2,0.43-3.3c0.19,0.02,0.38,0.05,0.56,0.07
				c0,0.03-0.01,0.06-0.01,0.09c0.22,0,0.45,0,0.67,0c0.27,0,0.5,0.01,0.68,0.02c0.31,0.03,0.46,0.16,0.44,0.41
				C70.4,117.65,70.33,118.64,70.25,119.63z"/>
			<path class="st2" d="M74.11,120.62c0,0.26-0.17,0.39-0.53,0.39c-0.5,0-1-0.01-1.5-0.02c-0.36-0.01-0.54-0.18-0.52-0.51
				c0-0.04,0.01-0.1,0.01-0.17c0.01-0.08,0.01-0.13,0.01-0.17c0.2,0.01,0.41,0.02,0.61,0.02c0,0.15-0.01,0.29-0.01,0.44
				c0.43,0.01,0.87,0.02,1.3,0.02c0-0.29,0-0.58,0-0.88c-0.34,0-0.67-0.01-1.01-0.01c-0.27-0.01-0.5-0.08-0.67-0.22
				c-0.17-0.14-0.26-0.32-0.25-0.52c0.03-0.65,0.06-1.29,0.09-1.94c0.01-0.2,0.09-0.36,0.25-0.48c0.15-0.12,0.35-0.18,0.59-0.18
				c0.07,0,0.4,0.05,1.01,0.13c0-0.03,0-0.06,0-0.09c0.19,0,0.38,0,0.56,0C74.08,117.82,74.09,119.22,74.11,120.62z M73.49,119.35
				c0-0.84,0-1.67,0.01-2.51c-0.45-0.02-0.72-0.04-0.79-0.04c-0.32-0.01-0.48,0.12-0.49,0.37c-0.02,0.59-0.04,1.19-0.06,1.78
				c-0.01,0.26,0.15,0.39,0.49,0.4C72.93,119.35,73.21,119.35,73.49,119.35z"/>
			<path class="st2" d="M77.79,119.17c0.02,0.26-0.14,0.4-0.48,0.43c-0.47,0.04-0.93,0.07-1.4,0.09c-0.35,0.02-0.52-0.11-0.53-0.36
				c-0.01-0.25-0.02-0.5-0.03-0.75c0.2-0.01,0.39-0.02,0.59-0.03c0.01,0.25,0.03,0.5,0.04,0.75c0.41-0.02,0.82-0.05,1.23-0.08
				c-0.02-0.22-0.04-0.44-0.05-0.66c-0.55-0.28-1.08-0.58-1.61-0.88c-0.15-0.08-0.23-0.2-0.24-0.35c-0.01-0.18-0.01-0.37-0.02-0.55
				c-0.01-0.26,0.15-0.39,0.47-0.41c0.43-0.02,0.86-0.05,1.28-0.08c0.32-0.03,0.49,0.09,0.51,0.34c0.02,0.22,0.04,0.44,0.06,0.66
				c-0.19,0.02-0.37,0.03-0.56,0.05c-0.02-0.22-0.03-0.44-0.05-0.65c-0.39,0.03-0.77,0.06-1.16,0.07c0.01,0.19,0.02,0.39,0.03,0.58
				c0.53,0.3,1.07,0.59,1.61,0.87c0.15,0.07,0.24,0.19,0.25,0.34C77.75,118.76,77.77,118.97,77.79,119.17z"/>
			<path class="st2" d="M82.83,118.83c-0.28,0.06-0.57,0.11-0.86,0.17c-0.34,0.06-0.53-0.04-0.58-0.29
				c-0.15-0.83-0.29-1.67-0.44-2.5c-0.17,0.03-0.33,0.06-0.5,0.08c-0.02-0.13-0.04-0.26-0.06-0.4c0.16-0.03,0.33-0.05,0.49-0.08
				c-0.06-0.34-0.12-0.68-0.18-1.02c0.18-0.03,0.36-0.06,0.54-0.1c0.06,0.34,0.13,0.68,0.19,1.02c0.24-0.04,0.48-0.09,0.71-0.14
				c0.03,0.13,0.05,0.26,0.08,0.39c-0.24,0.05-0.48,0.1-0.72,0.14c0.16,0.83,0.31,1.65,0.47,2.48c0.25-0.05,0.51-0.1,0.76-0.15
				C82.77,118.56,82.8,118.69,82.83,118.83z"/>
			<path class="st2" d="M86.29,117.58c0.07,0.25-0.06,0.42-0.39,0.51c-0.5,0.14-0.99,0.27-1.49,0.39c-0.34,0.08-0.53-0.01-0.59-0.26
				c-0.19-0.83-0.39-1.66-0.58-2.49c-0.06-0.25,0.07-0.41,0.38-0.49c0.46-0.11,0.92-0.23,1.38-0.36c0.31-0.09,0.5-0.01,0.58,0.24
				C85.81,115.94,86.05,116.76,86.29,117.58z M85.7,117.73c-0.23-0.81-0.45-1.62-0.68-2.43c-0.41,0.11-0.82,0.22-1.23,0.32
				c0.2,0.82,0.4,1.64,0.61,2.45C84.83,117.96,85.27,117.85,85.7,117.73z"/>
			<path class="st2" d="M91.22,116.25c-0.27,0.11-0.54,0.22-0.81,0.33c-0.32,0.13-0.53,0.07-0.62-0.17
				c-0.31-0.79-0.61-1.58-0.92-2.37c-0.16,0.06-0.32,0.12-0.48,0.18c-0.05-0.13-0.09-0.25-0.14-0.38c0.16-0.06,0.31-0.12,0.47-0.18
				c-0.12-0.32-0.25-0.64-0.37-0.97c0.17-0.07,0.34-0.13,0.51-0.2c0.13,0.32,0.26,0.64,0.39,0.96c0.23-0.09,0.45-0.18,0.68-0.27
				c0.05,0.12,0.1,0.25,0.16,0.37c-0.23,0.09-0.46,0.19-0.68,0.28c0.31,0.78,0.63,1.56,0.94,2.35c0.24-0.1,0.48-0.19,0.72-0.29
				C91.12,116.01,91.17,116.13,91.22,116.25z"/>
			<path class="st2" d="M94.59,114.69c-0.18,0.1-0.37,0.19-0.56,0.28c-0.44-0.87-0.88-1.74-1.32-2.61c-0.38,0.2-0.76,0.39-1.14,0.58
				c0.41,0.87,0.82,1.75,1.23,2.62c-0.19,0.09-0.38,0.17-0.56,0.26c-0.73-1.63-1.47-3.26-2.2-4.88c0.17-0.07,0.33-0.15,0.5-0.23
				c0.3,0.64,0.6,1.28,0.9,1.92c0.2-0.12,0.39-0.23,0.59-0.35c0.25-0.15,0.44-0.27,0.59-0.34c0.28-0.14,0.48-0.11,0.6,0.11
				C93.67,112.93,94.13,113.81,94.59,114.69z"/>
			<path class="st2" d="M97.75,112.43c0.14,0.22,0.06,0.42-0.24,0.61c-0.43,0.26-0.86,0.52-1.29,0.77
				c-0.31,0.17-0.52,0.15-0.65-0.08c-0.42-0.74-0.83-1.49-1.25-2.23c-0.13-0.23-0.05-0.42,0.24-0.58c0.4-0.23,0.8-0.47,1.2-0.71
				c0.28-0.17,0.48-0.15,0.62,0.07c0.21,0.34,0.43,0.67,0.64,1.01c-0.03,0.08-0.06,0.16-0.09,0.25c-0.48,0.3-0.96,0.59-1.44,0.86
				c0.2,0.35,0.4,0.7,0.6,1.04c0.39-0.22,0.77-0.45,1.15-0.68c-0.11-0.17-0.21-0.35-0.32-0.52c0.17-0.1,0.34-0.21,0.51-0.32
				C97.54,112.09,97.64,112.26,97.75,112.43z M96.42,111.42c-0.18-0.28-0.35-0.57-0.53-0.85c-0.36,0.22-0.72,0.43-1.08,0.64
				c0.17,0.29,0.33,0.58,0.5,0.87C95.68,111.86,96.05,111.64,96.42,111.42z"/>
			<path class="st2" d="M99.15,105.78c-0.21,0.17-0.42,0.34-0.63,0.5c0.33,0.43,0.67,0.85,1,1.28c0.19-0.15,0.38-0.3,0.57-0.46
				c0.08,0.1,0.17,0.21,0.25,0.31c-0.19,0.16-0.39,0.31-0.58,0.46c0.6,0.77,1.21,1.54,1.81,2.31c-0.16,0.13-0.33,0.26-0.5,0.38
				c-0.59-0.78-1.18-1.56-1.78-2.33c-0.13,0.1-0.27,0.2-0.4,0.3c-0.08-0.11-0.16-0.21-0.24-0.32c0.13-0.1,0.27-0.2,0.4-0.3
				c-0.33-0.43-0.66-0.87-0.99-1.3c-0.16-0.21-0.11-0.4,0.14-0.6c0.23-0.18,0.46-0.36,0.68-0.55
				C98.99,105.57,99.07,105.68,99.15,105.78z"/>
			<path class="st2" d="M104.97,107.24c-0.15,0.15-0.31,0.29-0.46,0.44c-0.02-0.02-0.04-0.04-0.06-0.07
				c-0.17,0.19-0.34,0.39-0.52,0.57c-0.21,0.23-0.39,0.41-0.55,0.54c-0.26,0.23-0.47,0.25-0.63,0.06c-0.64-0.76-1.29-1.52-1.93-2.27
				c0.15-0.13,0.29-0.25,0.44-0.38c0.64,0.73,1.28,1.47,1.92,2.2c0.35-0.32,0.69-0.64,1.03-0.97c-0.66-0.71-1.32-1.41-1.97-2.12
				c0.14-0.13,0.29-0.27,0.43-0.41C103.43,105.63,104.2,106.43,104.97,107.24z"/>
			<path class="st2" d="M107.13,105c-0.21,0.23-0.42,0.46-0.63,0.68c-0.25,0.27-0.47,0.31-0.66,0.13c-0.61-0.59-1.22-1.18-1.82-1.77
				c-0.12,0.13-0.25,0.26-0.37,0.38c-0.09-0.09-0.19-0.19-0.28-0.28c0.12-0.13,0.25-0.25,0.37-0.38c-0.25-0.24-0.5-0.48-0.74-0.72
				c0.13-0.14,0.27-0.28,0.4-0.42c0.25,0.24,0.5,0.47,0.75,0.71c0.18-0.19,0.35-0.38,0.52-0.57c0.1,0.09,0.2,0.18,0.3,0.27
				c-0.17,0.19-0.35,0.39-0.53,0.58c0.61,0.58,1.23,1.16,1.84,1.74c0.19-0.2,0.37-0.4,0.56-0.61
				C106.93,104.82,107.03,104.91,107.13,105z"/>
			<path class="st2" d="M109.65,101.94c-0.13,0.18-0.27,0.35-0.4,0.52c-0.02-0.02-0.05-0.04-0.07-0.06
				c-0.14,0.23-0.29,0.45-0.44,0.67c-0.18,0.27-0.34,0.48-0.47,0.64c-0.23,0.28-0.44,0.33-0.63,0.17c-0.75-0.65-1.5-1.3-2.26-1.95
				c0.13-0.15,0.26-0.31,0.39-0.46c0.75,0.63,1.49,1.25,2.24,1.88c0.3-0.38,0.6-0.77,0.89-1.16c-0.76-0.6-1.52-1.19-2.28-1.79
				c0.12-0.16,0.25-0.32,0.37-0.49C107.88,100.6,108.76,101.27,109.65,101.94z"/>
			<path class="st2" d="M110.05,97.41c-0.11,0.18-0.23,0.36-0.34,0.54c-0.19-0.12-0.38-0.25-0.58-0.37c-0.21,0.34-0.41,0.67-0.63,1
				c0.79,0.55,1.59,1.1,2.38,1.64c-0.13,0.19-0.26,0.37-0.39,0.56c-0.9-0.64-1.81-1.29-2.71-1.93c0.12-0.17,0.24-0.34,0.36-0.52
				c0.03,0.02,0.05,0.04,0.08,0.05c0.1-0.19,0.2-0.37,0.29-0.56c0.12-0.23,0.22-0.41,0.31-0.55c0.19-0.3,0.39-0.38,0.6-0.25
				C109.63,97.15,109.84,97.28,110.05,97.41z"/>
			<path class="st2" d="M113.61,94.85c0.23,0.12,0.25,0.35,0.07,0.7c-0.26,0.5-0.53,0.99-0.81,1.48c-0.19,0.34-0.4,0.44-0.63,0.31
				c-0.73-0.43-1.46-0.87-2.2-1.3c-0.22-0.13-0.24-0.35-0.06-0.67c0.26-0.45,0.51-0.91,0.75-1.37c0.17-0.32,0.37-0.43,0.6-0.31
				c0.36,0.18,0.71,0.36,1.07,0.54c0.01,0.09,0.03,0.19,0.04,0.28c-0.29,0.56-0.59,1.12-0.9,1.66c0.35,0.2,0.7,0.4,1.04,0.6
				c0.24-0.43,0.48-0.87,0.72-1.31c-0.18-0.09-0.36-0.19-0.54-0.28c0.1-0.2,0.21-0.4,0.31-0.6
				C113.25,94.67,113.43,94.76,113.61,94.85z M111.91,94.73c-0.29-0.16-0.59-0.31-0.88-0.47c-0.22,0.42-0.45,0.83-0.68,1.24
				c0.29,0.17,0.58,0.33,0.87,0.5C111.46,95.58,111.69,95.16,111.91,94.73z"/>
		</g>
	</g>
	<g>
		<g>
			<path class="st2" d="M47.94,135c-0.21-0.12-0.42-0.23-0.63-0.35c-0.06-0.81-0.1-1.61-0.12-2.42c-0.35,0.58-0.69,1.16-1.04,1.74
				c-0.19-0.11-0.38-0.23-0.57-0.35c1.11-1.82,2.23-3.64,3.34-5.45c0.17,0.1,0.34,0.21,0.51,0.31c-0.69,1.16-1.39,2.33-2.08,3.49
				c0.62-0.26,1.24-0.54,1.85-0.82c0.19,0.11,0.39,0.22,0.58,0.32c0,0-0.01,0.01-0.01,0.01c-0.67,0.3-1.34,0.59-2.03,0.87
				C47.79,133.23,47.85,134.12,47.94,135z"/>
			<path class="st2" d="M51.5,136.8c-0.2-0.09-0.39-0.18-0.59-0.27c0.02-0.03,0.03-0.07,0.05-0.1c-0.25-0.08-0.5-0.17-0.74-0.26
				c-0.31-0.11-0.54-0.22-0.72-0.31c-0.32-0.16-0.41-0.38-0.28-0.64c0.22-0.43,0.45-0.86,0.67-1.29c0.14-0.27,0.37-0.32,0.69-0.16
				c0.44,0.23,0.89,0.44,1.34,0.66c0.17-0.36,0.34-0.72,0.51-1.08c-0.4-0.19-0.8-0.39-1.2-0.59c-0.1,0.2-0.2,0.4-0.31,0.6
				c-0.18-0.09-0.36-0.18-0.54-0.28c0.1-0.2,0.21-0.4,0.31-0.59c0.14-0.27,0.37-0.33,0.67-0.17c0.44,0.22,0.88,0.44,1.33,0.65
				c0.31,0.15,0.4,0.36,0.27,0.64C52.48,134.67,51.99,135.73,51.5,136.8z M51.14,136.08c0.2-0.42,0.4-0.85,0.6-1.27
				c-0.43-0.2-0.85-0.41-1.28-0.63c-0.22,0.43-0.43,0.85-0.65,1.28C50.25,135.67,50.69,135.88,51.14,136.08z"/>
			<path class="st2" d="M54.59,138.11c-0.29-0.11-0.58-0.23-0.86-0.35c-0.34-0.14-0.45-0.35-0.33-0.64c0.39-0.93,0.79-1.87,1.18-2.8
				c-0.17-0.07-0.33-0.14-0.5-0.21c0.06-0.15,0.13-0.29,0.19-0.44c0.16,0.07,0.33,0.14,0.49,0.21c0.16-0.38,0.32-0.76,0.48-1.14
				c0.18,0.08,0.36,0.15,0.54,0.22c-0.16,0.38-0.31,0.76-0.47,1.15c0.24,0.1,0.48,0.19,0.72,0.29c-0.06,0.15-0.12,0.3-0.17,0.45
				c-0.24-0.1-0.49-0.19-0.73-0.29c-0.38,0.93-0.76,1.86-1.14,2.8c0.26,0.1,0.51,0.21,0.77,0.31
				C54.71,137.81,54.65,137.96,54.59,138.11z"/>
			<path class="st2" d="M58.48,139.47c-0.21-0.06-0.41-0.13-0.62-0.2c0.36-1.11,0.71-2.21,1.07-3.32c-0.43-0.13-0.86-0.26-1.29-0.4
				c-0.38,1.09-0.76,2.18-1.14,3.26c-0.21-0.07-0.41-0.14-0.61-0.22c0.73-2,1.46-4.01,2.18-6.01c0.18,0.07,0.36,0.13,0.55,0.19
				c-0.28,0.8-0.56,1.59-0.84,2.39c0.24,0.05,0.47,0.11,0.71,0.16c0.3,0.06,0.53,0.12,0.7,0.17c0.32,0.1,0.44,0.29,0.35,0.58
				C59.19,137.21,58.83,138.34,58.48,139.47z"/>
			<path class="st2" d="M64.65,141.01c-0.21-0.04-0.42-0.08-0.63-0.12c0.23-1.14,0.46-2.28,0.69-3.42c-0.43-0.08-0.87-0.16-1.3-0.25
				c-0.26,1.12-0.51,2.25-0.77,3.37c-0.21-0.05-0.42-0.1-0.63-0.15c0.27-1.13,0.54-2.26,0.82-3.39c-0.43-0.09-0.86-0.19-1.29-0.3
				c-0.3,1.11-0.6,2.23-0.89,3.34c-0.21-0.06-0.42-0.11-0.63-0.17c0.36-1.28,0.71-2.55,1.07-3.83c0.19,0.05,0.39,0.11,0.58,0.16
				c-0.01,0.04-0.02,0.07-0.03,0.11c0.24,0.03,0.47,0.07,0.71,0.1c0.29,0.04,0.52,0.08,0.7,0.12c0.18,0.04,0.3,0.12,0.36,0.24
				c0.25,0.03,0.51,0.05,0.76,0.07c0.33,0.03,0.58,0.06,0.74,0.1c0.32,0.07,0.46,0.24,0.4,0.53
				C65.1,138.69,64.87,139.85,64.65,141.01z"/>
			<path class="st2" d="M68.86,141.66c-0.21-0.02-0.42-0.05-0.63-0.08c0-0.04,0.01-0.07,0.01-0.11c-0.26,0-0.51-0.01-0.77-0.02
				c-0.32-0.01-0.57-0.03-0.76-0.06c-0.35-0.05-0.5-0.23-0.45-0.52c0.08-0.48,0.16-0.95,0.23-1.43c0.05-0.3,0.25-0.42,0.59-0.37
				c0.48,0.07,0.96,0.14,1.44,0.2c0.05-0.4,0.1-0.79,0.15-1.19c-0.43-0.05-0.86-0.11-1.29-0.18c-0.03,0.22-0.07,0.45-0.1,0.67
				c-0.2-0.03-0.39-0.06-0.59-0.09c0.04-0.22,0.07-0.44,0.11-0.66c0.05-0.3,0.24-0.43,0.57-0.38c0.48,0.07,0.95,0.14,1.43,0.2
				c0.33,0.04,0.48,0.21,0.45,0.52C69.13,139.33,69,140.49,68.86,141.66z M68.31,141.09c0.06-0.47,0.12-0.93,0.18-1.4
				c-0.46-0.06-0.92-0.12-1.38-0.19c-0.07,0.47-0.14,0.94-0.21,1.41C67.36,140.98,67.83,141.04,68.31,141.09z"/>
			<path class="st2" d="M73.16,141.98c-0.21-0.01-0.43-0.02-0.64-0.03c0.06-1.16,0.12-2.32,0.17-3.49
				c-0.44-0.01-0.89-0.03-1.33-0.05c-0.09,1.15-0.17,2.3-0.26,3.45c-0.21-0.02-0.43-0.03-0.64-0.05c0.11-1.32,0.23-2.64,0.34-3.96
				c0.2,0.02,0.4,0.03,0.6,0.05c0,0.04-0.01,0.07-0.01,0.11c0.24-0.01,0.47-0.02,0.71-0.04c0.29-0.01,0.53-0.02,0.71-0.01
				c0.33,0.02,0.49,0.17,0.48,0.47C73.25,139.62,73.2,140.8,73.16,141.98z"/>
			<path class="st2" d="M77.42,141.99c-0.21,0.01-0.43,0.01-0.64,0.02c0-0.04,0-0.07,0-0.11c-0.69,0.11-1.07,0.15-1.14,0.15
				c-0.27,0-0.5-0.08-0.66-0.24c-0.17-0.16-0.25-0.35-0.24-0.59c0.01-0.78,0.02-1.55,0.03-2.33c0-0.25,0.09-0.45,0.27-0.61
				c0.18-0.16,0.4-0.24,0.67-0.24c0.33,0,0.66-0.01,0.99-0.02c-0.02-0.81-0.04-1.61-0.06-2.42c0.19,0,0.38-0.01,0.57-0.02
				C77.26,137.73,77.34,139.86,77.42,141.99z M76.77,141.52c-0.03-1-0.05-2-0.08-3c-0.28,0.01-0.56,0.01-0.84,0.01
				c-0.33,0-0.5,0.16-0.5,0.46c0,0.71,0,1.42,0,2.12c0,0.3,0.18,0.46,0.53,0.45C75.97,141.57,76.26,141.56,76.77,141.52z"/>
			<path class="st2" d="M81.71,141.67c-0.21,0.02-0.42,0.05-0.63,0.07c0-0.04-0.01-0.07-0.01-0.11c-0.25,0.06-0.51,0.11-0.76,0.16
				c-0.3,0.06-0.56,0.1-0.76,0.11c-0.35,0.03-0.53-0.11-0.55-0.4c-0.08-1.18-0.15-2.37-0.23-3.55c0.2-0.01,0.39-0.03,0.59-0.04
				c0.09,1.16,0.18,2.32,0.26,3.48c0.47-0.05,0.94-0.1,1.41-0.16c-0.12-1.15-0.23-2.29-0.35-3.44c0.2-0.02,0.39-0.04,0.59-0.06
				C81.41,139.04,81.56,140.36,81.71,141.67z"/>
			<path class="st2" d="M83.94,140.65c-0.08,0.41-0.16,0.82-0.25,1.22c-0.15,0.02-0.31,0.04-0.46,0.07
				c-0.01-0.39-0.01-0.79-0.02-1.18C83.45,140.72,83.69,140.69,83.94,140.65z"/>
			<path class="st2" d="M91.03,139.83c-0.15,0.04-0.3,0.09-0.45,0.13c-1.07-1.33-2.1-2.69-3.07-4.07c0.36,1.53,0.73,3.05,1.09,4.58
				c-0.21,0.05-0.41,0.1-0.62,0.14c-0.47-2.08-0.94-4.16-1.42-6.24c0.15-0.03,0.29-0.07,0.44-0.1c0.93,1.36,1.91,2.7,2.94,4.02
				c-0.41-1.49-0.81-2.97-1.22-4.46c0.18-0.05,0.36-0.1,0.55-0.15C89.85,135.73,90.44,137.78,91.03,139.83z"/>
			<path class="st2" d="M95.01,138.04c0.11,0.29-0.01,0.5-0.36,0.62c-0.49,0.18-0.99,0.35-1.48,0.51c-0.35,0.11-0.57,0.02-0.66-0.27
				c-0.31-0.97-0.62-1.94-0.93-2.91c-0.09-0.29,0.02-0.49,0.35-0.6c0.46-0.15,0.92-0.31,1.38-0.47c0.32-0.12,0.53-0.03,0.64,0.26
				c0.17,0.45,0.33,0.89,0.5,1.34c-0.04,0.08-0.09,0.17-0.13,0.25c-0.55,0.2-1.1,0.39-1.66,0.58c0.15,0.46,0.3,0.91,0.45,1.37
				c0.44-0.15,0.88-0.3,1.31-0.45c-0.08-0.23-0.16-0.46-0.25-0.68c0.19-0.07,0.39-0.14,0.58-0.21
				C94.84,137.59,94.93,137.82,95.01,138.04z M93.79,136.5c-0.13-0.38-0.27-0.75-0.4-1.13c-0.41,0.15-0.83,0.29-1.24,0.43
				c0.13,0.38,0.25,0.76,0.38,1.14C92.94,136.8,93.37,136.65,93.79,136.5z"/>
			<path class="st2" d="M98.87,136.01c0.1,0.22,0.1,0.45-0.01,0.68c-0.11,0.23-0.3,0.4-0.57,0.52c-0.33,0.15-0.66,0.29-0.99,0.43
				c0.19,0.46,0.39,0.93,0.58,1.39c-0.21,0.09-0.41,0.17-0.62,0.26c-0.68-1.7-1.37-3.39-2.05-5.09c0.19-0.08,0.38-0.15,0.56-0.23
				c0.01,0.03,0.03,0.07,0.04,0.1c0.21-0.12,0.42-0.24,0.64-0.36c0.27-0.15,0.48-0.27,0.64-0.34c0.31-0.14,0.53-0.08,0.65,0.19
				C98.11,134.38,98.49,135.2,98.87,136.01z M98.24,136.21c-0.35-0.78-0.7-1.55-1.04-2.33c-0.41,0.19-0.82,0.38-1.23,0.57
				c0.38,0.92,0.76,1.83,1.15,2.75c0.28-0.12,0.55-0.23,0.83-0.35C98.27,136.7,98.37,136.48,98.24,136.21z"/>
			<path class="st2" d="M103.1,134.82c-0.19,0.11-0.38,0.21-0.57,0.32c-0.02-0.03-0.04-0.06-0.05-0.1c-0.22,0.15-0.43,0.3-0.65,0.45
				c-0.27,0.18-0.5,0.31-0.67,0.4c-0.32,0.16-0.55,0.11-0.68-0.15c-0.21-0.43-0.43-0.87-0.64-1.3c-0.14-0.27-0.04-0.49,0.28-0.65
				c0.44-0.23,0.88-0.46,1.32-0.7c-0.19-0.35-0.38-0.7-0.57-1.05c-0.39,0.21-0.79,0.42-1.18,0.62c0.1,0.2,0.21,0.4,0.31,0.6
				c-0.18,0.09-0.36,0.18-0.54,0.27c-0.1-0.2-0.2-0.4-0.3-0.6c-0.14-0.28-0.05-0.49,0.26-0.65c0.44-0.22,0.88-0.45,1.31-0.69
				c0.3-0.17,0.53-0.12,0.68,0.15C101.96,132.77,102.53,133.79,103.1,134.82z M102.3,134.69c-0.22-0.41-0.45-0.82-0.67-1.24
				c-0.42,0.23-0.84,0.45-1.26,0.67c0.22,0.42,0.43,0.85,0.65,1.27C101.45,135.17,101.88,134.93,102.3,134.69z"/>
			<path class="st2" d="M105.13,133.63c-0.19,0.11-0.37,0.23-0.56,0.34c-1.09-1.83-2.19-3.66-3.28-5.49c0.17-0.1,0.33-0.2,0.5-0.3
				C102.9,129.99,104.02,131.81,105.13,133.63z"/>
		</g>
	</g>
	<g>
		<g>
			<path class="st2" d="M50.93,38.45c0.05,0.08,0.05,0.17,0.03,0.25c-0.03,0.08-0.09,0.15-0.18,0.2c-0.38,0.21-0.75,0.42-1.12,0.63
				c-0.09,0.05-0.18,0.07-0.26,0.05c-0.09-0.02-0.15-0.07-0.2-0.15c-0.67-1.13-1.34-2.26-2-3.39c-0.05-0.08-0.06-0.17-0.03-0.26
				c0.03-0.09,0.09-0.16,0.19-0.22c0.41-0.24,0.82-0.47,1.23-0.69c0.1-0.05,0.19-0.07,0.28-0.05c0.09,0.02,0.16,0.07,0.2,0.16
				c0.17,0.31,0.34,0.63,0.51,0.94c-0.14,0.07-0.27,0.15-0.41,0.22c-0.17-0.3-0.33-0.6-0.5-0.9c-0.35,0.19-0.7,0.39-1.05,0.59
				c0.65,1.11,1.29,2.23,1.94,3.34c0.32-0.19,0.65-0.37,0.98-0.55c-0.25-0.46-0.51-0.93-0.76-1.39c-0.16,0.09-0.32,0.18-0.48,0.26
				c-0.06-0.1-0.12-0.2-0.17-0.31c0.29-0.17,0.59-0.33,0.88-0.49C50.31,37.29,50.62,37.87,50.93,38.45z"/>
			<path class="st2" d="M53.5,37.15c0.09,0.2,0.03,0.35-0.18,0.45c-0.31,0.15-0.62,0.3-0.94,0.46c-0.21,0.1-0.36,0.06-0.46-0.14
				c-0.33-0.65-0.66-1.3-0.99-1.95c-0.1-0.2-0.04-0.35,0.18-0.46c0.33-0.16,0.66-0.33,0.99-0.48c0.22-0.11,0.38-0.06,0.48,0.14
				C52.88,35.83,53.19,36.49,53.5,37.15z M53.12,37.32c-0.31-0.65-0.62-1.3-0.93-1.96c-0.29,0.14-0.58,0.28-0.86,0.42
				c0.32,0.65,0.64,1.29,0.97,1.94C52.56,37.59,52.84,37.45,53.12,37.32z"/>
			<path class="st2" d="M55.11,33.71c0.11,0.98,0.23,1.96,0.37,2.93c-0.12,0.05-0.23,0.1-0.35,0.15c-0.6-0.78-1.22-1.55-1.85-2.31
				c0.14-0.06,0.27-0.12,0.41-0.18c0.46,0.61,0.92,1.23,1.37,1.85c-0.13-0.76-0.25-1.52-0.36-2.28
				C54.84,33.82,54.97,33.77,55.11,33.71z"/>
			<path class="st2" d="M58,35.67c-0.18,0.06-0.37,0.13-0.55,0.2c-0.22,0.08-0.36,0.02-0.44-0.19c-0.25-0.68-0.51-1.36-0.76-2.04
				c-0.12,0.04-0.24,0.09-0.36,0.13c-0.04-0.11-0.08-0.21-0.12-0.32c0.12-0.05,0.24-0.09,0.36-0.14c-0.1-0.28-0.21-0.55-0.31-0.83
				c0.14-0.05,0.27-0.1,0.41-0.15c0.1,0.28,0.2,0.56,0.3,0.83c0.17-0.06,0.35-0.13,0.52-0.19c0.04,0.11,0.08,0.22,0.11,0.32
				c-0.17,0.06-0.35,0.12-0.52,0.19c0.25,0.68,0.49,1.36,0.74,2.03c0.17-0.06,0.33-0.12,0.5-0.18C57.92,35.46,57.96,35.57,58,35.67z
				"/>
			<path class="st2" d="M61.91,34.47c-0.49,0.13-0.99,0.27-1.48,0.41c-0.43-1.47-0.87-2.93-1.3-4.4c0.15-0.04,0.3-0.09,0.45-0.13
				c0.39,1.35,0.77,2.71,1.16,4.06c0.36-0.1,0.72-0.2,1.07-0.29C61.85,34.24,61.88,34.36,61.91,34.47z"/>
			<path class="st2" d="M62.43,30.77c-0.14,0.03-0.29,0.07-0.43,0.1c-0.04-0.16-0.08-0.32-0.12-0.48c0.14-0.03,0.29-0.07,0.43-0.1
				C62.35,30.45,62.39,30.61,62.43,30.77z M63.21,34.15c-0.13,0.03-0.26,0.06-0.39,0.09c-0.22-0.92-0.45-1.85-0.67-2.77
				c0.14-0.03,0.27-0.07,0.41-0.1C62.78,32.3,62.99,33.23,63.21,34.15z"/>
			<path class="st2" d="M65.81,33.29c0.04,0.22-0.06,0.35-0.28,0.39c-0.32,0.06-0.63,0.12-0.95,0.18c-0.22,0.05-0.36-0.04-0.4-0.26
				c-0.15-0.71-0.3-1.43-0.45-2.14c-0.05-0.22,0.05-0.35,0.29-0.4c0.33-0.07,0.67-0.13,1-0.19c0.24-0.04,0.38,0.05,0.41,0.26
				c0.03,0.19,0.07,0.37,0.1,0.56c-0.14,0.02-0.27,0.05-0.41,0.07c-0.03-0.18-0.07-0.37-0.1-0.55c-0.29,0.05-0.58,0.11-0.87,0.17
				c0.14,0.71,0.28,1.42,0.43,2.12c0.28-0.06,0.55-0.11,0.83-0.16c-0.04-0.21-0.08-0.42-0.11-0.63c0.13-0.02,0.27-0.05,0.4-0.07
				C65.74,32.86,65.77,33.07,65.81,33.29z"/>
			<path class="st2" d="M67.3,33.38c-0.15,0.02-0.31,0.04-0.46,0.07c-0.03-0.17-0.05-0.34-0.08-0.51c0.15-0.02,0.31-0.05,0.46-0.07
				C67.25,33.04,67.28,33.21,67.3,33.38z"/>
			<path class="st2" d="M70.13,32.73c0.01,0.1-0.02,0.18-0.07,0.24c-0.06,0.07-0.14,0.1-0.23,0.11c-0.39,0.04-0.78,0.08-1.17,0.12
				c-0.1,0.01-0.18-0.01-0.25-0.06c-0.07-0.05-0.11-0.13-0.12-0.22c-0.05-0.38-0.09-0.77-0.14-1.15c0.14-0.02,0.29-0.03,0.43-0.05
				c0.04,0.37,0.09,0.75,0.13,1.12c0.33-0.04,0.67-0.07,1-0.1c-0.07-0.72-0.13-1.43-0.2-2.15c-0.49,0.05-0.98,0.1-1.47,0.16
				c-0.06-0.69-0.13-1.37-0.19-2.06c0.63-0.08,1.26-0.14,1.89-0.2c0.01,0.12,0.02,0.24,0.03,0.36c-0.48,0.04-0.96,0.09-1.43,0.14
				c0.03,0.45,0.06,0.89,0.1,1.34c0.38-0.04,0.76-0.08,1.13-0.12c0.1-0.01,0.19,0.01,0.26,0.07c0.07,0.05,0.11,0.13,0.12,0.22
				C70,31.25,70.06,31.99,70.13,32.73z"/>
			<path class="st2" d="M73.08,32.57c0,0.1-0.03,0.17-0.09,0.24c-0.06,0.06-0.14,0.09-0.24,0.1c-0.39,0.01-0.78,0.03-1.17,0.05
				c-0.1,0.01-0.18-0.02-0.25-0.08c-0.07-0.06-0.1-0.13-0.11-0.23c-0.02-0.39-0.05-0.77-0.07-1.16c0.14-0.01,0.29-0.02,0.43-0.03
				c0.02,0.38,0.04,0.75,0.06,1.13c0.33-0.02,0.67-0.03,1-0.04c-0.02-0.72-0.05-1.44-0.07-2.16c-0.49,0.02-0.99,0.04-1.48,0.07
				c-0.02-0.69-0.05-1.38-0.07-2.07c0.63-0.04,1.27-0.07,1.9-0.08c0,0.12,0.01,0.24,0.01,0.36c-0.48,0.01-0.96,0.03-1.44,0.06
				c0.01,0.45,0.01,0.9,0.02,1.35c0.38-0.02,0.76-0.04,1.14-0.05c0.11,0,0.19,0.02,0.26,0.08c0.07,0.06,0.1,0.14,0.11,0.23
				C73.04,31.09,73.06,31.83,73.08,32.57z"/>
			<path class="st2" d="M76.06,32.59c0,0.1-0.04,0.17-0.1,0.23c-0.07,0.06-0.15,0.09-0.25,0.08c-0.4-0.01-0.79-0.02-1.19-0.02
				c-0.1,0-0.18-0.03-0.25-0.09c-0.06-0.06-0.1-0.14-0.1-0.23c0-0.34,0-0.68,0-1.01c0.14,0,0.29,0,0.43,0c0,0.33,0,0.65-0.01,0.98
				c0.34,0,0.69,0.01,1.03,0.02c0.02-0.57,0.03-1.13,0.05-1.7c-0.39-0.01-0.78-0.02-1.17-0.02c-0.1,0-0.19-0.03-0.25-0.09
				c-0.06-0.06-0.1-0.14-0.1-0.23c0-0.63,0-1.25-0.01-1.88c0-0.1,0.03-0.17,0.1-0.23c0.07-0.06,0.16-0.09,0.26-0.09
				c0.44,0,0.89,0.01,1.33,0.02c0.11,0,0.2,0.04,0.26,0.1c0.06,0.06,0.1,0.14,0.09,0.24C76.16,29.97,76.11,31.28,76.06,32.59z
				 M75.69,30.49c0.02-0.6,0.03-1.21,0.05-1.81c-0.38-0.01-0.75-0.02-1.13-0.02c0,0.6-0.01,1.21-0.01,1.81
				C74.97,30.47,75.33,30.48,75.69,30.49z"/>
			<path class="st2" d="M79.83,28.61c-0.89,1.44-1.71,2.89-2.48,4.37c-0.13-0.01-0.27-0.02-0.4-0.02c0-0.01,0-0.02,0-0.02
				c0.75-1.48,1.57-2.95,2.44-4.39c0.15,0.01,0.29,0.03,0.44,0.04C79.84,28.59,79.84,28.6,79.83,28.61z"/>
			<path class="st2" d="M82.23,33.19c-0.02,0.09-0.06,0.17-0.13,0.22c-0.07,0.05-0.16,0.07-0.26,0.05
				c-0.42-0.06-0.83-0.12-1.25-0.18c-0.1-0.01-0.18-0.05-0.23-0.12c-0.06-0.07-0.08-0.15-0.07-0.24c0.16-1.3,0.32-2.6,0.48-3.91
				c0.01-0.09,0.06-0.17,0.13-0.22c0.08-0.05,0.17-0.07,0.28-0.06c0.46,0.06,0.91,0.12,1.37,0.19c0.11,0.02,0.19,0.06,0.25,0.13
				c0.06,0.07,0.08,0.15,0.07,0.25C82.65,30.61,82.44,31.9,82.23,33.19z M81.81,33.09c0.2-1.27,0.39-2.55,0.59-3.82
				c-0.39-0.06-0.79-0.12-1.18-0.17c-0.17,1.28-0.33,2.55-0.5,3.83C81.08,32.99,81.45,33.04,81.81,33.09z"/>
			<path class="st2" d="M85.22,33.78c-0.02,0.09-0.07,0.16-0.14,0.21c-0.07,0.05-0.16,0.06-0.26,0.04c-0.4-0.09-0.79-0.17-1.19-0.25
				c-0.1-0.02-0.17-0.06-0.22-0.14s-0.07-0.15-0.05-0.25c0.24-1.29,0.48-2.58,0.72-3.87c0.02-0.09,0.07-0.16,0.14-0.21
				c0.08-0.05,0.17-0.06,0.28-0.04c0.43,0.08,0.86,0.17,1.29,0.27c0.11,0.02,0.19,0.07,0.24,0.15c0.05,0.07,0.07,0.16,0.05,0.25
				c-0.07,0.33-0.15,0.66-0.22,0.99c-0.15-0.03-0.29-0.07-0.44-0.1c0.07-0.32,0.14-0.64,0.21-0.96c-0.37-0.08-0.73-0.15-1.1-0.23
				c-0.11,0.56-0.22,1.11-0.33,1.67c0.39,0.08,0.78,0.16,1.17,0.24c0.1,0.02,0.18,0.07,0.23,0.14c0.05,0.07,0.06,0.16,0.04,0.25
				C85.5,32.56,85.36,33.17,85.22,33.78z M84.81,33.65c0.13-0.59,0.26-1.18,0.38-1.77c-0.36-0.08-0.71-0.15-1.07-0.22
				c-0.12,0.59-0.23,1.18-0.35,1.78C84.13,33.5,84.47,33.57,84.81,33.65z"/>
			<path class="st2" d="M87.98,34.82c-0.61-0.18-1.22-0.34-1.84-0.49c0.02-0.07,0.03-0.14,0.05-0.21c0.71-0.82,1.45-1.64,2.21-2.43
				c0.1-0.35,0.2-0.7,0.3-1.05c-0.34-0.1-0.68-0.19-1.02-0.28c-0.09,0.33-0.17,0.67-0.26,1c-0.15-0.04-0.29-0.08-0.44-0.11
				c0.09-0.34,0.17-0.69,0.26-1.03c0.02-0.09,0.08-0.16,0.16-0.2c0.08-0.04,0.18-0.05,0.28-0.02c0.41,0.1,0.81,0.21,1.22,0.33
				c0.11,0.03,0.18,0.08,0.23,0.16c0.05,0.08,0.06,0.16,0.03,0.25c-0.09,0.31-0.18,0.62-0.27,0.93c-0.03,0.11-0.11,0.23-0.23,0.35
				c-0.66,0.69-1.31,1.38-1.93,2.09c0.45,0.12,0.9,0.24,1.35,0.37C88.04,34.59,88.01,34.71,87.98,34.82z"/>
			<path class="st2" d="M92.62,31.54c-1.22,1.17-2.38,2.38-3.49,3.63c-0.13-0.04-0.26-0.08-0.39-0.12c0-0.01,0-0.01,0.01-0.02
				c1.1-1.25,2.25-2.48,3.46-3.66c0.14,0.05,0.28,0.1,0.42,0.15C92.62,31.53,92.62,31.54,92.62,31.54z"/>
			<path class="st2" d="M93.87,36.59c-0.04,0.09-0.1,0.15-0.18,0.18c-0.08,0.03-0.17,0.02-0.27-0.01c-0.39-0.17-0.79-0.33-1.19-0.48
				c-0.09-0.04-0.16-0.09-0.2-0.17c-0.04-0.08-0.04-0.16-0.01-0.25c0.47-1.22,0.94-2.45,1.41-3.67c0.03-0.09,0.09-0.15,0.18-0.18
				c0.09-0.03,0.18-0.03,0.28,0.01c0.44,0.17,0.87,0.35,1.3,0.53c0.1,0.04,0.17,0.11,0.22,0.19c0.04,0.08,0.04,0.17,0.01,0.26
				C94.9,34.19,94.39,35.39,93.87,36.59z M93.48,36.39c0.5-1.19,1-2.37,1.5-3.56c-0.37-0.16-0.75-0.31-1.12-0.46
				c-0.47,1.2-0.95,2.4-1.42,3.59C92.79,36.1,93.13,36.25,93.48,36.39z"/>
			<path class="st2" d="M96.68,37.92c-0.04,0.09-0.11,0.14-0.19,0.17c-0.09,0.02-0.17,0.01-0.26-0.03
				c-0.37-0.19-0.74-0.37-1.12-0.54c-0.09-0.04-0.15-0.11-0.19-0.19c-0.03-0.08-0.03-0.17,0.01-0.25c0.55-1.19,1.1-2.38,1.64-3.57
				c0.04-0.09,0.1-0.14,0.19-0.17c0.09-0.03,0.18-0.01,0.28,0.03c0.41,0.19,0.81,0.39,1.21,0.59c0.1,0.05,0.17,0.12,0.2,0.2
				c0.03,0.08,0.03,0.17-0.01,0.26c-0.15,0.3-0.31,0.6-0.46,0.9c-0.14-0.07-0.28-0.14-0.41-0.21c0.15-0.29,0.29-0.58,0.44-0.88
				c-0.34-0.17-0.68-0.34-1.03-0.5c-0.24,0.51-0.48,1.03-0.72,1.54c0.37,0.17,0.73,0.35,1.09,0.53c0.1,0.05,0.16,0.11,0.19,0.2
				c0.03,0.08,0.03,0.17-0.02,0.25C97.25,36.8,96.96,37.36,96.68,37.92z M96.31,37.69c0.27-0.54,0.54-1.08,0.81-1.62
				c-0.33-0.17-0.67-0.33-1-0.48c-0.26,0.55-0.51,1.09-0.77,1.64C95.66,37.37,95.98,37.53,96.31,37.69z"/>
			<path class="st2" d="M99.43,39.43c-0.05,0.08-0.12,0.13-0.2,0.15c-0.09,0.02-0.17,0-0.26-0.05c-0.37-0.21-0.73-0.42-1.1-0.62
				c-0.09-0.05-0.15-0.12-0.18-0.2c-0.03-0.08-0.02-0.17,0.03-0.25c0.18-0.34,0.37-0.68,0.55-1.02c0.13,0.07,0.26,0.14,0.39,0.21
				c-0.18,0.33-0.36,0.66-0.54,0.99c0.32,0.18,0.64,0.36,0.95,0.54c0.23-0.4,0.47-0.81,0.7-1.21c-0.16-0.33-0.32-0.65-0.49-0.97
				c0.01-0.03,0.03-0.05,0.04-0.08c0.36-0.03,0.72-0.05,1.09-0.07c0.19-0.34,0.39-0.67,0.58-1.01c-0.34-0.2-0.68-0.39-1.02-0.57
				c-0.17,0.3-0.33,0.6-0.5,0.9c-0.14-0.07-0.27-0.15-0.41-0.22c0.17-0.31,0.34-0.63,0.51-0.94c0.05-0.08,0.11-0.14,0.2-0.16
				c0.09-0.02,0.19,0,0.28,0.05c0.4,0.22,0.8,0.44,1.19,0.67c0.1,0.06,0.16,0.13,0.19,0.22c0.03,0.09,0.02,0.17-0.03,0.26
				c-0.19,0.32-0.38,0.64-0.57,0.96c-0.07,0.13-0.19,0.19-0.35,0.19c-0.24,0.01-0.48,0.01-0.73,0.02c0.12,0.21,0.23,0.43,0.34,0.64
				c0.07,0.14,0.07,0.27-0.01,0.4C99.9,38.65,99.66,39.04,99.43,39.43z"/>
		</g>
	</g>
	<g>
		<g>
			<path class="st2" d="M18.91,63.16c0.2,0.04,0.35,0.17,0.45,0.38c0.1,0.22,0.12,0.48,0.07,0.79c-0.19,1.25-0.35,2.52-0.47,3.81
				c-0.03,0.32-0.12,0.58-0.27,0.78c-0.15,0.2-0.32,0.29-0.53,0.28c-0.83-0.07-1.67-0.13-2.5-0.2c0.04-0.49,0.08-0.97,0.13-1.46
				c0.81,0.08,1.62,0.17,2.42,0.25c0.11-1.12,0.25-2.23,0.41-3.32c-0.78-0.13-1.55-0.25-2.33-0.38c-1.3,1.27-2.57,2.65-3.81,4.15
				c-0.26,0.31-0.52,0.46-0.79,0.44c-0.67-0.05-1.33-0.1-2-0.16c-0.21-0.02-0.36-0.15-0.47-0.41c-0.11-0.26-0.15-0.58-0.11-0.95
				c0.14-1.53,0.33-3.02,0.55-4.49c0.06-0.37,0.17-0.65,0.33-0.85c0.17-0.2,0.35-0.28,0.55-0.24c0.76,0.14,1.51,0.29,2.27,0.43
				c-0.08,0.49-0.16,0.98-0.23,1.47c-0.73-0.12-1.47-0.24-2.2-0.36c-0.19,1.25-0.34,2.52-0.47,3.81c0.69,0.07,1.38,0.14,2.08,0.22
				c1.25-1.49,2.55-2.86,3.87-4.12c0.26-0.25,0.53-0.34,0.8-0.29C17.41,62.87,18.16,63.02,18.91,63.16z"/>
			<path class="st2" d="M16.21,51.61c1.72,1.35,3.47,2.65,5.25,3.89c-0.1,0.34-0.21,0.68-0.31,1.02c-1.61-0.07-3.23-0.1-4.85-0.09
				c1.38,0.9,2.77,1.76,4.18,2.6c-0.08,0.35-0.17,0.7-0.24,1.05c-2.14,0.11-4.28,0.28-6.42,0.54c0.08-0.43,0.17-0.85,0.26-1.27
				c1.64-0.1,3.28-0.16,4.91-0.18c-1.43-0.84-2.85-1.7-4.26-2.61c0.1-0.38,0.2-0.76,0.3-1.13c1.64,0.01,3.28,0.05,4.92,0.14
				c-1.39-0.9-2.76-1.84-4.12-2.8C15.95,52.38,16.08,51.99,16.21,51.61z"/>
			<path class="st2" d="M15.89,48.56c-0.16,0.41-0.32,0.83-0.47,1.25c-0.33-0.13-0.66-0.27-0.99-0.4c0.16-0.43,0.32-0.85,0.48-1.27
				C15.24,48.27,15.57,48.42,15.89,48.56z M22.83,51.55c-0.14,0.35-0.27,0.71-0.41,1.07c-1.91-0.77-3.83-1.55-5.74-2.32
				c0.15-0.4,0.3-0.79,0.45-1.18C19.03,49.92,20.93,50.74,22.83,51.55z"/>
			<path class="st2" d="M16.64,42.78c-0.27,0.55-0.54,1.1-0.8,1.67c0.9,0.45,1.81,0.9,2.71,1.35c0.22-0.47,0.44-0.94,0.67-1.41
				c0.22,0.12,0.44,0.23,0.66,0.35c-0.23,0.46-0.45,0.92-0.67,1.39c1.63,0.81,3.26,1.63,4.89,2.44c-0.16,0.34-0.31,0.68-0.46,1.02
				c-1.65-0.78-3.29-1.56-4.94-2.34c-0.14,0.32-0.28,0.65-0.42,0.98c-0.23-0.1-0.45-0.21-0.68-0.31c0.14-0.33,0.28-0.66,0.42-0.99
				c-0.92-0.44-1.84-0.87-2.76-1.31c-0.43-0.2-0.5-0.65-0.19-1.34c0.29-0.63,0.59-1.25,0.89-1.86
				C16.2,42.55,16.42,42.67,16.64,42.78z"/>
			<path class="st2" d="M26.55,43.93c-0.26,0.45-0.52,0.9-0.78,1.36c-0.3,0.54-0.65,0.7-1.07,0.47c-1.38-0.78-2.76-1.55-4.14-2.33
				c-0.17,0.32-0.33,0.63-0.49,0.96c-0.22-0.12-0.44-0.24-0.66-0.35c0.16-0.32,0.33-0.65,0.5-0.97c-0.56-0.32-1.13-0.63-1.69-0.95
				c0.2-0.37,0.39-0.74,0.6-1.1c0.56,0.33,1.11,0.65,1.67,0.98c0.25-0.46,0.51-0.91,0.78-1.35c0.21,0.13,0.42,0.26,0.64,0.4
				c-0.26,0.44-0.52,0.89-0.77,1.34c1.36,0.8,2.72,1.6,4.08,2.39c0.23-0.42,0.47-0.83,0.71-1.24
				C26.13,43.66,26.34,43.79,26.55,43.93z"/>
			<path class="st2" d="M31.51,35.86c0.16,0.14,0.23,0.31,0.22,0.53c-0.01,0.21-0.1,0.42-0.26,0.61c-0.7,0.83-1.38,1.69-2.04,2.58
				c-0.16,0.21-0.34,0.35-0.54,0.4c-0.2,0.06-0.39,0.02-0.56-0.1c-2.31-1.7-4.63-3.39-6.94-5.09c-0.17-0.12-0.25-0.3-0.24-0.54
				c0.01-0.24,0.1-0.48,0.29-0.73c0.77-1.04,1.57-2.06,2.4-3.04c0.2-0.23,0.41-0.38,0.64-0.44c0.23-0.06,0.42-0.02,0.57,0.12
				c0.58,0.51,1.17,1.03,1.75,1.54c-0.27,0.31-0.54,0.63-0.81,0.95c-0.57-0.49-1.15-0.97-1.72-1.46c-0.7,0.84-1.38,1.7-2.04,2.59
				c2.24,1.71,4.48,3.42,6.72,5.13c0.58-0.77,1.17-1.52,1.78-2.25c-0.88-0.75-1.76-1.49-2.65-2.24c-0.31,0.37-0.61,0.74-0.91,1.11
				c-0.2-0.16-0.4-0.32-0.6-0.48c0.55-0.7,1.12-1.38,1.7-2.04C29.36,33.96,30.44,34.91,31.51,35.86z"/>
			<path class="st2" d="M36.24,32.08c-0.25,0.23-0.5,0.46-0.75,0.69c-0.04-0.04-0.08-0.08-0.12-0.13c-0.27,0.32-0.54,0.64-0.81,0.96
				c-0.32,0.39-0.59,0.7-0.82,0.94c-0.39,0.41-0.75,0.46-1.09,0.14c-1.36-1.27-2.72-2.54-4.08-3.81c0.26-0.28,0.53-0.56,0.79-0.83
				c1.31,1.27,2.62,2.54,3.93,3.81c0.53-0.57,1.08-1.13,1.64-1.68c-1.25-1.31-2.49-2.62-3.74-3.93c0.28-0.26,0.56-0.52,0.84-0.77
				C33.43,29.01,34.84,30.55,36.24,32.08z"/>
			<path class="st2" d="M37.94,25.33c-0.29,0.21-0.59,0.43-0.88,0.65c-0.26-0.34-0.53-0.68-0.79-1.01
				c-0.54,0.43-1.08,0.88-1.61,1.33c1.16,1.38,2.32,2.77,3.48,4.15c-0.27,0.22-0.53,0.44-0.79,0.66c-1.36-1.57-2.73-3.14-4.09-4.7
				c0.29-0.25,0.59-0.49,0.88-0.74c0.04,0.04,0.07,0.09,0.11,0.13c0.27-0.27,0.54-0.55,0.81-0.82c0.33-0.32,0.62-0.58,0.86-0.76
				c0.51-0.38,0.9-0.38,1.18-0.01C37.38,24.59,37.66,24.96,37.94,25.33z"/>
			<path class="st2" d="M44.88,25.77c-0.32,0.19-0.64,0.38-0.96,0.57c-1.16-0.53-2.34-1.03-3.55-1.49c0.6,0.87,1.21,1.74,1.81,2.6
				c-0.28,0.19-0.57,0.38-0.85,0.58c-1.96-2.7-3.92-5.41-5.87-8.11c0.33-0.23,0.66-0.46,1-0.68c1.21,1.74,2.42,3.48,3.63,5.22
				c0.08-1.08,0.19-2.17,0.33-3.27c0.35-0.21,0.7-0.42,1.05-0.63c0,0.01,0.01,0.01,0.01,0.02c-0.21,1.19-0.39,2.37-0.52,3.55
				C42.31,24.64,43.61,25.19,44.88,25.77z"/>
			<path class="st2" d="M49.45,23.38c-0.31,0.14-0.62,0.29-0.92,0.44c-0.84-1.61-1.67-3.22-2.51-4.84
				c-0.73,0.38-1.46,0.77-2.17,1.17c0.89,1.56,1.78,3.13,2.68,4.69c-0.3,0.16-0.6,0.33-0.9,0.49c-1.7-2.86-3.41-5.73-5.11-8.59
				c0.35-0.2,0.7-0.39,1.06-0.58c0.65,1.14,1.3,2.29,1.96,3.43c0.37-0.25,0.75-0.5,1.13-0.74c0.48-0.31,0.87-0.53,1.16-0.67
				c0.57-0.27,0.96-0.2,1.17,0.22C47.81,20.07,48.63,21.73,49.45,23.38z"/>
			<path class="st2" d="M54.7,21.27c-0.32,0.11-0.63,0.22-0.95,0.34c-0.02-0.05-0.04-0.11-0.06-0.16c-0.36,0.18-0.73,0.37-1.09,0.55
				c-0.45,0.23-0.81,0.41-1.09,0.52c-0.51,0.21-0.87,0.12-1.06-0.3c-0.32-0.68-0.64-1.37-0.95-2.05c-0.2-0.43-0.02-0.77,0.55-1.01
				c0.79-0.33,1.58-0.64,2.38-0.93c-0.23-0.58-0.46-1.16-0.69-1.73c-0.75,0.28-1.5,0.57-2.25,0.87c0.14,0.32,0.28,0.65,0.43,0.97
				c-0.33,0.14-0.66,0.27-0.99,0.42c-0.15-0.32-0.29-0.63-0.44-0.95c-0.2-0.43-0.01-0.78,0.58-1.03c0.84-0.35,1.69-0.68,2.54-0.99
				c0.6-0.22,0.99-0.1,1.15,0.35C53.42,17.85,54.06,19.56,54.7,21.27z M53.48,20.88c-0.27-0.68-0.54-1.36-0.8-2.04
				c-0.75,0.28-1.5,0.57-2.24,0.87c0.3,0.68,0.6,1.36,0.9,2.04C52.05,21.45,52.76,21.16,53.48,20.88z"/>
			<path class="st2" d="M60.04,19.69c-0.35,0.08-0.69,0.17-1.04,0.26c-0.91-3.18-1.82-6.37-2.73-9.55c0.41-0.11,0.81-0.21,1.22-0.31
				C58.34,13.29,59.19,16.49,60.04,19.69z"/>
			<path class="st2" d="M65.89,18.57c-0.34,0.05-0.68,0.1-1.01,0.15c-0.31-1.78-0.61-3.56-0.92-5.33c-0.81,0.14-1.62,0.3-2.42,0.48
				c0.37,1.75,0.75,3.5,1.12,5.24c-0.33,0.07-0.67,0.13-1,0.21c-0.47-2-0.93-4.01-1.4-6.01c0.37-0.08,0.74-0.16,1.11-0.23
				c0.01,0.06,0.02,0.11,0.04,0.17c0.43-0.13,0.86-0.25,1.29-0.37c0.53-0.14,0.97-0.24,1.32-0.29c0.63-0.1,0.98,0.09,1.04,0.54
				C65.33,14.94,65.61,16.76,65.89,18.57z"/>
			<path class="st2" d="M69.99,18.14c-0.48,0.03-0.97,0.07-1.45,0.12c-0.57,0.05-0.89-0.15-0.94-0.62
				c-0.19-1.56-0.37-3.11-0.56-4.67c-0.33,0.04-0.65,0.07-0.98,0.11c-0.03-0.24-0.07-0.49-0.1-0.73c0.33-0.04,0.66-0.08,0.99-0.12
				c-0.08-0.64-0.15-1.27-0.23-1.91c0.38-0.04,0.77-0.08,1.15-0.12c0.06,0.64,0.13,1.27,0.19,1.91c0.48-0.04,0.96-0.08,1.45-0.12
				c0.02,0.25,0.04,0.49,0.06,0.74c-0.48,0.03-0.95,0.07-1.43,0.12c0.16,1.55,0.32,3.1,0.47,4.65c0.44-0.04,0.88-0.08,1.32-0.11
				C69.96,17.65,69.97,17.9,69.99,18.14z"/>
			<path class="st2" d="M75.28,17.28c-0.01,0.48-0.3,0.71-0.87,0.71c-0.82,0-1.64,0.01-2.46,0.05c-0.57,0.02-0.87-0.2-0.9-0.67
				c-0.09-1.57-0.18-3.15-0.28-4.72c-0.03-0.48,0.28-0.73,0.92-0.76c0.91-0.04,1.82-0.05,2.74-0.05c0.64,0,0.95,0.25,0.95,0.72
				c-0.01,0.74-0.03,1.48-0.04,2.21c-0.12,0.1-0.25,0.2-0.37,0.29c-1-0.01-2,0-3,0.04c0.03,0.74,0.06,1.48,0.09,2.23
				c0.74-0.03,1.49-0.04,2.23-0.04c0-0.38,0-0.75,0-1.13c0.34,0,0.68,0,1.03,0.01C75.29,16.54,75.28,16.91,75.28,17.28z
				 M74.27,14.39c0-0.62,0-1.24,0-1.85c-0.81,0-1.61,0.02-2.42,0.05c0.03,0.62,0.05,1.24,0.07,1.85
				C72.71,14.4,73.49,14.39,74.27,14.39z"/>
			<path class="st2" d="M81.12,14.21c-0.36-0.04-0.72-0.07-1.08-0.1c0.04-0.42,0.08-0.84,0.12-1.27c-0.69-0.04-1.38-0.08-2.07-0.1
				c-0.11,1.78-0.22,3.56-0.33,5.34c-0.34-0.02-0.68-0.04-1.02-0.05c0.09-2.05,0.18-4.1,0.27-6.15c0.38,0.02,0.76,0.03,1.14,0.05
				c0,0.06-0.01,0.11-0.01,0.17c0.38-0.02,0.76-0.04,1.14-0.06c0.46-0.02,0.84-0.01,1.14,0.02c0.63,0.06,0.91,0.32,0.86,0.78
				C81.22,13.3,81.17,13.75,81.12,14.21z"/>
			<path class="st2" d="M85.97,19.11c-0.33-0.07-0.67-0.13-1.01-0.19c0.34-1.77,0.69-3.54,1.03-5.31c-0.81-0.13-1.63-0.24-2.45-0.34
				c-0.27,1.77-0.54,3.53-0.81,5.3c-0.34-0.05-0.68-0.09-1.01-0.13c0.27-2.04,0.55-4.07,0.82-6.11c0.38,0.05,0.75,0.1,1.13,0.15
				c-0.01,0.06-0.02,0.11-0.03,0.17c0.45,0.02,0.89,0.04,1.35,0.07c0.55,0.04,1,0.09,1.35,0.15c0.62,0.11,0.88,0.4,0.79,0.85
				C86.73,15.52,86.35,17.32,85.97,19.11z"/>
			<path class="st2" d="M91.46,20.46c-0.32-0.1-0.64-0.19-0.97-0.28c0.02-0.05,0.03-0.11,0.05-0.16c-0.4-0.06-0.81-0.13-1.21-0.19
				c-0.5-0.08-0.9-0.14-1.19-0.21c-0.54-0.13-0.76-0.41-0.66-0.85c0.18-0.73,0.35-1.46,0.53-2.19c0.11-0.46,0.47-0.63,1.07-0.48
				c0.83,0.2,1.66,0.41,2.48,0.64c0.18-0.59,0.36-1.19,0.54-1.78c-0.78-0.22-1.55-0.42-2.34-0.61c-0.09,0.34-0.18,0.68-0.27,1.02
				c-0.35-0.08-0.69-0.16-1.04-0.24c0.08-0.34,0.16-0.67,0.24-1.01c0.11-0.46,0.48-0.63,1.1-0.48c0.89,0.21,1.77,0.44,2.64,0.68
				c0.62,0.17,0.85,0.49,0.7,0.95C92.58,17,92.02,18.73,91.46,20.46z M90.73,19.45c0.21-0.7,0.42-1.39,0.63-2.09
				c-0.77-0.22-1.55-0.42-2.33-0.6c-0.19,0.72-0.37,1.43-0.56,2.15C89.24,19.08,89.99,19.26,90.73,19.45z"/>
			<path class="st2" d="M95.39,21.79c-0.45-0.17-0.91-0.34-1.37-0.5c-0.54-0.19-0.73-0.5-0.57-0.95c0.53-1.48,1.06-2.96,1.6-4.45
				c-0.31-0.1-0.63-0.2-0.94-0.3c0.08-0.23,0.16-0.47,0.24-0.7c0.32,0.1,0.63,0.2,0.95,0.31c0.22-0.6,0.43-1.21,0.65-1.81
				c0.36,0.12,0.73,0.25,1.09,0.37c-0.23,0.6-0.46,1.2-0.68,1.8c0.46,0.16,0.91,0.33,1.36,0.5c-0.09,0.23-0.19,0.46-0.28,0.69
				c-0.45-0.17-0.9-0.33-1.35-0.49c-0.56,1.47-1.11,2.93-1.67,4.4c0.42,0.15,0.83,0.3,1.24,0.45
				C95.57,21.33,95.48,21.56,95.39,21.79z"/>
			<path class="st2" d="M100.52,15.71c-0.36-0.15-0.72-0.3-1.09-0.45c0.14-0.33,0.28-0.66,0.42-0.98c0.37,0.15,0.74,0.3,1.11,0.46
				C100.81,15.06,100.66,15.38,100.52,15.71z M97.39,22.59c-0.31-0.13-0.62-0.26-0.93-0.38c0.82-1.9,1.63-3.79,2.45-5.69
				c0.35,0.14,0.69,0.28,1.03,0.43C99.09,18.82,98.24,20.7,97.39,22.59z"/>
			<path class="st2" d="M102.98,24.5c-0.24,0.42-0.62,0.48-1.13,0.21c-0.76-0.4-1.52-0.79-2.3-1.15c-0.52-0.24-0.68-0.58-0.47-1.01
				c0.69-1.43,1.39-2.86,2.08-4.29c0.21-0.43,0.6-0.52,1.18-0.25c0.86,0.41,1.71,0.83,2.55,1.28c0.57,0.3,0.73,0.67,0.48,1.08
				C104.58,21.75,103.78,23.13,102.98,24.5z M102.08,23.98c0.77-1.37,1.54-2.75,2.3-4.12c-0.73-0.38-1.47-0.75-2.21-1.11
				c-0.71,1.4-1.42,2.8-2.13,4.2C100.73,23.29,101.41,23.63,102.08,23.98z"/>
			<path class="st2" d="M107.5,28.17c-0.28-0.2-0.56-0.39-0.85-0.58c1.05-1.49,2.09-2.98,3.14-4.47c-0.7-0.45-1.4-0.88-2.11-1.3
				c-0.98,1.52-1.95,3.03-2.93,4.55c-0.29-0.18-0.58-0.35-0.88-0.53c1.09-1.76,2.18-3.53,3.27-5.29c0.33,0.19,0.65,0.39,0.98,0.59
				c-0.03,0.05-0.06,0.1-0.09,0.15c0.4,0.2,0.8,0.4,1.21,0.6c0.49,0.26,0.88,0.49,1.17,0.69c0.53,0.36,0.65,0.73,0.37,1.1
				C109.69,25.18,108.6,26.68,107.5,28.17z"/>
			<path class="st2" d="M111.99,31.71c-0.26-0.23-0.51-0.45-0.77-0.67c0.04-0.04,0.08-0.09,0.11-0.13
				c-0.34-0.23-0.69-0.46-1.04-0.68c-0.43-0.28-0.76-0.51-1-0.69c-0.45-0.34-0.53-0.69-0.25-1.06c0.46-0.6,0.92-1.2,1.39-1.8
				c0.29-0.38,0.69-0.39,1.18-0.01c0.68,0.53,1.35,1.07,2.01,1.63c0.41-0.47,0.82-0.95,1.23-1.42c-0.62-0.53-1.25-1.04-1.89-1.54
				c-0.22,0.28-0.44,0.55-0.66,0.83c-0.28-0.22-0.57-0.44-0.86-0.65c0.21-0.28,0.43-0.55,0.64-0.83c0.29-0.38,0.7-0.38,1.21,0.01
				c0.73,0.56,1.44,1.14,2.14,1.74c0.49,0.42,0.57,0.82,0.25,1.17C114.45,28.98,113.22,30.34,111.99,31.71z M111.74,30.47
				c0.48-0.56,0.96-1.11,1.44-1.67c-0.62-0.52-1.25-1.03-1.89-1.53c-0.47,0.58-0.93,1.17-1.4,1.75
				C110.52,29.49,111.13,29.97,111.74,30.47z"/>
			<path class="st2" d="M113.87,33.46c-0.25-0.24-0.49-0.48-0.74-0.71c2.3-2.43,4.61-4.85,6.91-7.28c0.29,0.28,0.58,0.55,0.87,0.84
				C118.56,28.69,116.22,31.07,113.87,33.46z"/>
			<path class="st2" d="M123.88,38.03c-0.17,0.12-0.36,0.15-0.58,0.08c-0.21-0.07-0.4-0.22-0.57-0.45c-0.62-0.86-1.27-1.7-1.93-2.51
				c-1.02,0.85-2.04,1.69-3.07,2.54c-0.23-0.29-0.47-0.57-0.71-0.85c2.53-2.18,5.07-4.37,7.6-6.55c1.03,1.21,2.02,2.46,2.96,3.77
				c0.18,0.25,0.28,0.5,0.28,0.74c0.01,0.24-0.08,0.42-0.25,0.54C126.38,36.23,125.13,37.13,123.88,38.03z M123.23,36.99
				c1.19-0.89,2.38-1.78,3.58-2.68c-0.63-0.86-1.28-1.71-1.95-2.53c-1.15,0.95-2.29,1.9-3.44,2.85
				C122.04,35.4,122.64,36.19,123.23,36.99z"/>
			<path class="st2" d="M128.57,42.75c-2.16,0.37-4.29,0.82-6.4,1.34c-0.17-0.29-0.34-0.57-0.51-0.85c1.4-1.69,2.76-3.43,4.07-5.22
				c0.23,0.34,0.46,0.69,0.68,1.04c-1.09,1.33-2.21,2.63-3.35,3.9c1.63-0.47,3.27-0.89,4.92-1.28
				C128.18,42.03,128.38,42.39,128.57,42.75z"/>
			<path class="st2" d="M124.96,49.5c-0.22-0.49-0.44-0.98-0.67-1.46c-0.27-0.57-0.2-0.96,0.22-1.19c1.4-0.74,2.79-1.49,4.19-2.23
				c-0.16-0.32-0.32-0.64-0.49-0.96c0.22-0.12,0.44-0.24,0.65-0.36c0.17,0.32,0.33,0.64,0.5,0.97c0.57-0.3,1.14-0.61,1.71-0.91
				c0.19,0.38,0.37,0.76,0.55,1.14c-0.57,0.29-1.15,0.58-1.72,0.88c0.23,0.48,0.45,0.97,0.67,1.46c-0.22,0.11-0.45,0.21-0.67,0.32
				c-0.21-0.49-0.43-0.97-0.66-1.44c-1.4,0.71-2.8,1.43-4.21,2.14c0.21,0.44,0.41,0.88,0.61,1.33
				C125.41,49.29,125.18,49.4,124.96,49.5z"/>
			<path class="st2" d="M127.92,58.07c-0.38-1.47-0.81-2.9-1.29-4.29c3.1-1.18,6.21-2.35,9.31-3.53c0.16,0.45,0.31,0.91,0.46,1.38
				c-2.88,1.02-5.76,2.04-8.65,3.06c0.33,1.03,0.64,2.09,0.92,3.16C128.42,57.92,128.17,58,127.92,58.07z"/>
			<path class="st2" d="M128.91,62.56c-0.11-0.59-0.22-1.17-0.34-1.74c-0.14-0.68,0.01-1.07,0.47-1.19
				c1.52-0.39,3.04-0.78,4.57-1.17c-0.09-0.39-0.18-0.77-0.27-1.15c0.24-0.07,0.48-0.13,0.72-0.2c0.1,0.39,0.19,0.77,0.28,1.16
				c0.62-0.16,1.24-0.32,1.86-0.48c0.1,0.45,0.2,0.9,0.3,1.36c-0.62,0.15-1.25,0.29-1.87,0.44c0.12,0.58,0.23,1.16,0.34,1.74
				c-0.24,0.05-0.48,0.1-0.73,0.15c-0.1-0.58-0.22-1.15-0.33-1.72c-1.52,0.35-3.04,0.71-4.56,1.06c0.11,0.52,0.21,1.05,0.31,1.59
				C129.39,62.46,129.15,62.51,128.91,62.56z"/>
			<path class="st2" d="M129.77,69.25c-0.03-0.44-0.07-0.87-0.12-1.31c0.06-0.01,0.11-0.01,0.17-0.02
				c-0.28-1.39-0.45-2.13-0.47-2.28c-0.07-0.54-0.02-1,0.17-1.37c0.19-0.37,0.46-0.59,0.82-0.65c1.18-0.21,2.37-0.42,3.55-0.63
				c0.37-0.07,0.72,0.08,1.03,0.45c0.31,0.37,0.51,0.87,0.59,1.51c0.1,0.78,0.19,1.57,0.27,2.37c1.24-0.13,2.48-0.25,3.73-0.38
				c0.05,0.51,0.1,1.02,0.14,1.54C136.35,68.73,133.06,68.99,129.77,69.25z M130.42,67.86c1.54-0.16,3.08-0.32,4.63-0.47
				c-0.06-0.66-0.14-1.32-0.22-1.97c-0.1-0.78-0.39-1.12-0.86-1.05c-1.08,0.17-2.17,0.34-3.25,0.5c-0.47,0.07-0.65,0.46-0.56,1.18
				C130.17,66.22,130.27,66.82,130.42,67.86z"/>
		</g>
	</g>
	<g>
		<path class="st5" d="M10.49,74.07c0.06,0.2,0.14,0.4,0.24,0.57l-0.62,0.62l0.96,0.96l0.62-0.62c0.18,0.1,0.37,0.18,0.58,0.24v0.87
			h1.36v-0.87c0.2-0.06,0.4-0.14,0.58-0.24l0.62,0.62l0.96-0.96l-0.62-0.62c0.1-0.18,0.18-0.37,0.24-0.57h0.87v-1.36h-0.87
			c-0.06-0.2-0.14-0.39-0.24-0.57l0.62-0.62l-0.96-0.96l-0.62,0.62c-0.18-0.1-0.37-0.18-0.57-0.24v-0.88h-1.36v0.88
			c-0.2,0.06-0.39,0.14-0.57,0.24l-0.62-0.62l-0.96,0.96l0.62,0.62c-0.1,0.18-0.18,0.37-0.24,0.57H9.62v1.36H10.49z M11.47,73.69
			c-0.2-1.05,0.71-1.96,1.76-1.76c0.58,0.11,1.06,0.59,1.17,1.17c0.2,1.05-0.71,1.96-1.76,1.76C12.06,74.75,11.58,74.27,11.47,73.69
			z"/>
		<path class="st6" d="M11.13,73.11c-0.19,1.23,0.86,2.28,2.09,2.09c0.77-0.12,1.4-0.75,1.52-1.51c0.19-1.23-0.86-2.28-2.09-2.09
			C11.88,71.71,11.25,72.34,11.13,73.11z M11.47,73.69c-0.2-1.05,0.71-1.96,1.76-1.76c0.58,0.11,1.06,0.59,1.17,1.17
			c0.2,1.05-0.71,1.96-1.76,1.76C12.06,74.75,11.58,74.27,11.47,73.69z"/>
	</g>
	<g>
		<path class="st5" d="M132.18,74.08c0.06,0.2,0.14,0.4,0.24,0.57l-0.62,0.62l0.96,0.96l0.62-0.62c0.18,0.1,0.37,0.18,0.58,0.24
			v0.87h1.36v-0.87c0.2-0.06,0.4-0.14,0.58-0.24l0.62,0.62l0.96-0.96l-0.62-0.62c0.1-0.18,0.18-0.37,0.24-0.57h0.87v-1.36h-0.87
			c-0.06-0.2-0.14-0.39-0.24-0.57l0.62-0.62l-0.96-0.96l-0.62,0.62c-0.18-0.1-0.37-0.18-0.57-0.24v-0.88h-1.36v0.88
			c-0.2,0.06-0.39,0.14-0.57,0.24l-0.62-0.62l-0.96,0.96l0.62,0.62c-0.1,0.18-0.18,0.37-0.24,0.57h-0.87v1.36H132.18z M133.17,73.69
			c-0.2-1.05,0.71-1.96,1.76-1.76c0.58,0.11,1.06,0.59,1.17,1.17c0.2,1.05-0.71,1.96-1.76,1.76
			C133.76,74.75,133.28,74.28,133.17,73.69z"/>
		<path class="st6" d="M132.83,73.11c-0.19,1.23,0.86,2.28,2.09,2.09c0.77-0.12,1.4-0.75,1.52-1.51c0.19-1.23-0.86-2.28-2.09-2.09
			C133.58,71.71,132.95,72.34,132.83,73.11z M133.17,73.69c-0.2-1.05,0.71-1.96,1.76-1.76c0.58,0.11,1.06,0.59,1.17,1.17
			c0.2,1.05-0.71,1.96-1.76,1.76C133.76,74.75,133.28,74.28,133.17,73.69z"/>
	</g>
	<g>
		<path class="st5" d="M40.36,129.82c0.06,0.2,0.14,0.4,0.24,0.57l-0.62,0.62l0.96,0.96l0.62-0.62c0.18,0.1,0.37,0.18,0.58,0.24
			v0.87h1.36v-0.87c0.2-0.06,0.4-0.14,0.58-0.24l0.62,0.62l0.96-0.96l-0.62-0.62c0.1-0.18,0.18-0.37,0.24-0.57h0.87v-1.36h-0.87
			c-0.06-0.2-0.14-0.39-0.24-0.57l0.62-0.62l-0.96-0.96l-0.62,0.62c-0.18-0.1-0.37-0.18-0.57-0.24v-0.88h-1.36v0.88
			c-0.2,0.06-0.39,0.14-0.57,0.24l-0.62-0.62l-0.96,0.96l0.62,0.62c-0.1,0.18-0.18,0.37-0.24,0.57h-0.87v1.36H40.36z M41.34,129.44
			c-0.2-1.05,0.71-1.96,1.76-1.76c0.58,0.11,1.06,0.59,1.17,1.17c0.2,1.05-0.71,1.96-1.76,1.76
			C41.93,130.5,41.45,130.02,41.34,129.44z"/>
		<path class="st6" d="M41,128.86c-0.19,1.23,0.86,2.28,2.09,2.09c0.77-0.12,1.4-0.75,1.52-1.51c0.19-1.23-0.86-2.28-2.09-2.09
			C41.75,127.46,41.12,128.09,41,128.86z M41.34,129.44c-0.2-1.05,0.71-1.96,1.76-1.76c0.58,0.11,1.06,0.59,1.17,1.17
			c0.2,1.05-0.71,1.96-1.76,1.76C41.93,130.5,41.45,130.02,41.34,129.44z"/>
	</g>
	<g>
		<path class="st5" d="M105,130.36c0.06,0.2,0.14,0.4,0.24,0.57l-0.62,0.62l0.96,0.96l0.62-0.62c0.18,0.1,0.37,0.18,0.58,0.24v0.87
			h1.36v-0.87c0.2-0.06,0.4-0.14,0.58-0.24l0.62,0.62l0.96-0.96l-0.62-0.62c0.1-0.18,0.18-0.37,0.24-0.57h0.87v-1.36h-0.87
			c-0.06-0.2-0.14-0.39-0.24-0.57l0.62-0.62l-0.96-0.96l-0.62,0.62c-0.18-0.1-0.37-0.18-0.57-0.24v-0.88h-1.36v0.88
			c-0.2,0.06-0.39,0.14-0.57,0.24l-0.62-0.62l-0.96,0.96l0.62,0.62c-0.1,0.18-0.18,0.37-0.24,0.57h-0.87v1.36H105z M105.99,129.98
			c-0.2-1.05,0.71-1.96,1.76-1.76c0.58,0.11,1.06,0.59,1.17,1.17c0.2,1.05-0.71,1.96-1.76,1.76
			C106.58,131.04,106.1,130.56,105.99,129.98z"/>
		<path class="st6" d="M105.65,129.4c-0.19,1.23,0.86,2.28,2.09,2.09c0.77-0.12,1.4-0.75,1.52-1.51c0.19-1.23-0.86-2.28-2.09-2.09
			C106.4,128,105.77,128.63,105.65,129.4z M105.99,129.98c-0.2-1.05,0.71-1.96,1.76-1.76c0.58,0.11,1.06,0.59,1.17,1.17
			c0.2,1.05-0.71,1.96-1.76,1.76C106.58,131.04,106.1,130.56,105.99,129.98z"/>
	</g>
</g>
</svg>
