<?xml version="1.0" encoding="utf-8"?>
<!-- Generator: Adobe Illustrator 24.3.0, SVG Export Plug-In . SVG Version: 6.00 Build 0)  -->
<svg version="1.1" id="Layer_1" xmlns="http://www.w3.org/2000/svg" xmlns:xlink="http://www.w3.org/1999/xlink" x="0px" y="0px"
	 viewBox="0 0 148.6 148.6" style="enable-background:new 0 0 148.6 148.6;" xml:space="preserve">
<style type="text/css">
	.st0{fill:#5166B0;stroke:url(#SVGID_1_);stroke-width:0.5;stroke-miterlimit:10;}
	.st1{fill:#5166B0;stroke:url(#SVGID_2_);stroke-width:0.5;stroke-miterlimit:10;}
	.st2{fill:#5166B0;}
	.st3{fill:#234095;}
	.st4{fill:#FBB040;}
	.st5{fill:#286590;}
	.st6{fill:#41648C;}
	.st7{fill:#3F668E;}
	.st8{fill:#C6C5C5;}
	.st9{fill:#ABB0B1;}
</style>
<g>
	<g>
		
			<linearGradient id="SVGID_1_" gradientUnits="userSpaceOnUse" x1="69.9432" y1="52.214" x2="63.9419" y2="110.8013" gradientTransform="matrix(1 -4.692423e-03 4.692423e-03 1 -0.4436 0.2105)">
			<stop  offset="0" style="stop-color:#F1B370"/>
			<stop  offset="0.6504" style="stop-color:#C4843A"/>
			<stop  offset="1" style="stop-color:#B2722A"/>
		</linearGradient>
		<path class="st0" d="M88.7,112.7c-0.3-2.2-0.6-4.2-0.9-6.1c-0.8-4.1-2.1-7.9-4.4-11.4c-1.5-2.2-3.6-3.9-6-5c-2-0.9-4-0.9-6.1,0
			c-2.7,1.1-4.9,2.9-6.7,5.2c-2.8,3.7-4.5,8-5.8,12.4c-0.2,0.6-0.4,1.1-0.7,1.8c-1.7-4.9-4.9-8.5-9-11.8c1.3-1.2,2.5-2.3,3.7-3.4
			c4.9-4.3,6.5-9.6,4.9-16c-1.1-4.8-4.3-6.5-8-7.1c-2.6-0.4-5.1-0.1-7.7,0.4c-1.2,0.2-2.4,0.5-3.7,0.8c-0.9-1.3-0.6-2.6,0-3.9
			c0.7-1.6,1.7-2.9,3.2-3.8c5.1-3.3,10.5-5.4,16.7-4.7c2.2,0.3,4.4,1,6.6,1.8c1.7,0.6,3.3,1.5,4.9,2.3c2.3,1,3.6,0.8,5.4-0.9
			c1.6-1.6,3-3.3,4.7-4.7c3.4-3,7.3-4.8,12-4c2.8,0.5,5.2,1.9,6.8,4.5c-1.6,0.6-2.9,1.5-4.3,2c-3.7,1.9-5.7,4.6-6.5,9
			c-0.2,1.6-0.2,3.3-0.2,5c0,2.3,0.8,4.2,2.4,5.8c2.3,2.5,4,5.4,4.7,8.7c1.2,5.8,1.2,11.6-1.3,17.2C92.3,109,91,111,88.7,112.7z"/>
		
			<linearGradient id="SVGID_2_" gradientUnits="userSpaceOnUse" x1="83.5042" y1="35.6479" x2="77.6377" y2="92.9189" gradientTransform="matrix(0.9974 -7.168313e-02 7.168313e-02 0.9974 -3.6444 5.4741)">
			<stop  offset="0" style="stop-color:#F1B370"/>
			<stop  offset="0.6504" style="stop-color:#C4843A"/>
			<stop  offset="1" style="stop-color:#B2722A"/>
		</linearGradient>
		<path class="st1" d="M71.9,64c0.3,0.6,1.1,0.7,1.6,0.4c0.4-0.2,0.5-0.3,0.8-0.5c3.2-2.7,5.3-4.8,8.6-6.5c1.6-0.8,3.3-1.5,5-2
			c2.7-0.7,5.3,0,7.5,1.7c1.7,1.2,1.4,2.3-0.4,3.3c-1.5,0.7-3,1.6-4.2,2.7c-2.9,2.6-3.8,8.6-3,9.9c0.2,0.4,0.5,0.8,1,0.8
			c0,0,0,0,0,0c4.7-0.2,8.3,1.9,10.9,5.7c2.5,3.6,3.9,7.6,4.7,11.9c0.1,0.3,0.1,0.5,0.2,0.8c0.2,0.8,1.2,1.1,1.8,0.5
			c1.1-1.2,1.8-2.5,2.4-3.9c3.3-7.1,2.3-20.8-5.1-26.9c-0.9-0.7-1.6-2-2-3.1c-1.1-3.7-1-7.4,0.1-11.1c0.6-2,1.7-3.6,3.6-4.7
			c1.5-0.8,3-1.6,4.5-2.4c0.6-0.3,0.7-1.2,0.2-1.7c-2.3-2.3-5.1-3.3-8.5-2.9c-4.3,0.5-7.6,2.9-10.4,6c-1.1,1.3-2.1,2.6-3.3,3.8
			c-1.9,2-3.1,2.2-5.6,1.2c-0.8-0.3-1.5-0.7-2.3-1c-6.5-2.9-13-3.2-19.5-0.1c-2.5,1.2-4.8,2.5-6.8,4.4c-1.6,1.7-2.7,3.6-2.2,6.1
			c0.1,0.6,0.7,1,1.3,0.8C61,55.3,67.7,56.3,71.9,64z"/>
	</g>
	<g>
		<path class="st2" d="M74.3,19.6c30.2,0,54.7,24.5,54.7,54.7S104.5,129,74.3,129s-54.7-24.5-54.7-54.7S44.1,19.6,74.3,19.6
			 M74.3,15.6c-32.4,0-58.7,26.3-58.7,58.7S41.9,133,74.3,133S133,106.7,133,74.3S106.7,15.6,74.3,15.6L74.3,15.6z"/>
	</g>
	<g>
		<path class="st2" d="M74.3,4c38.8,0,70.3,31.5,70.3,70.3s-31.5,70.3-70.3,70.3S4,113.1,4,74.3S35.5,4,74.3,4 M74.3,0
			C33.3,0,0,33.3,0,74.3s33.3,74.3,74.3,74.3s74.3-33.3,74.3-74.3S115.3,0,74.3,0L74.3,0z"/>
	</g>
	<g>
		<path class="st3" d="M74.3,4.5c38.5,0,69.8,31.3,69.8,69.8s-31.3,69.8-69.8,69.8S4.5,112.8,4.5,74.3S35.8,4.5,74.3,4.5 M74.3,3.5
			C35.2,3.5,3.5,35.2,3.5,74.3s31.7,70.8,70.8,70.8s70.8-31.7,70.8-70.8S113.4,3.5,74.3,3.5L74.3,3.5z"/>
	</g>
	<g>
		<path class="st4" d="M74.3,1.9c39.9,0,72.4,32.5,72.4,72.4s-32.5,72.4-72.4,72.4S1.9,114.2,1.9,74.3S34.4,1.9,74.3,1.9 M74.3,1.4
			C34.1,1.4,1.4,34.1,1.4,74.3s32.6,72.9,72.9,72.9s72.9-32.6,72.9-72.9S114.5,1.4,74.3,1.4L74.3,1.4z"/>
	</g>
	<g>
		<g>
			<path class="st5" d="M37,111.1c-0.1,0.1-0.2,0.1-0.3,0.1c-0.1,0-0.2-0.1-0.3-0.2c-0.4-0.4-0.8-0.8-1.2-1.3
				c-0.1-0.1-0.2-0.2-0.2-0.3c0-0.1,0-0.2,0.1-0.3c0.3-0.3,0.7-0.6,1-0.9c0.1,0.1,0.3,0.3,0.4,0.4c-0.3,0.3-0.6,0.6-0.9,0.9
				c0.3,0.4,0.7,0.7,1.1,1.1c0.3-0.3,0.6-0.6,0.9-0.9c0-0.9,0-1.7,0-2.6c0-0.2,0.1-0.3,0.2-0.4c0.3-0.2,0.5-0.5,0.8-0.7
				c0.1-0.1,0.2-0.1,0.3-0.1c0.1,0,0.2,0.1,0.3,0.2c0.4,0.4,0.7,0.8,1.1,1.1c0.1,0.1,0.1,0.2,0.2,0.3c0,0.1,0,0.2-0.1,0.3
				c-0.3,0.3-0.6,0.6-0.9,0.9c-0.1-0.1-0.3-0.3-0.4-0.4c0.3-0.3,0.6-0.6,0.8-0.9c-0.3-0.3-0.6-0.6-1-1c-0.3,0.3-0.5,0.5-0.8,0.8
				c0,0.8,0,1.7,0,2.6c0,0.2,0,0.3-0.1,0.4C37.6,110.5,37.3,110.8,37,111.1z"/>
			<path class="st5" d="M40,113.3c-0.1,0.2-0.3,0.2-0.5,0.2c-0.2,0-0.4-0.1-0.6-0.3c-0.2-0.2-0.5-0.4-0.7-0.6
				c-0.3,0.3-0.6,0.6-0.8,0.9c-0.1-0.1-0.3-0.3-0.4-0.4c1-1.1,2.1-2.3,3.1-3.4c0.1,0.1,0.3,0.2,0.4,0.4c0,0,0,0-0.1,0.1
				c0.2,0.1,0.4,0.3,0.5,0.4c0.2,0.2,0.4,0.3,0.5,0.4c0.2,0.2,0.3,0.4,0.1,0.6C41,112.2,40.5,112.8,40,113.3z M39.6,112.9
				c0.5-0.5,0.9-1.1,1.4-1.6c-0.3-0.3-0.6-0.5-0.9-0.8c-0.6,0.6-1.1,1.2-1.7,1.9c0.2,0.2,0.4,0.4,0.6,0.5
				C39.3,113.1,39.5,113.1,39.6,112.9z"/>
			<path class="st5" d="M43.6,114.2c-0.1-0.1-0.3-0.2-0.4-0.3c0.1-0.2,0.3-0.4,0.4-0.5c-0.3-0.2-0.5-0.4-0.8-0.6
				c-0.6,0.8-1.2,1.5-1.8,2.3c-0.2-0.1-0.3-0.2-0.5-0.4c0.7-0.9,1.4-1.7,2.1-2.6c0.1,0.1,0.3,0.2,0.4,0.3c0,0,0,0-0.1,0.1
				c0.2,0.1,0.3,0.2,0.5,0.3c0.2,0.1,0.3,0.2,0.5,0.3c0.2,0.2,0.3,0.4,0.1,0.6C43.9,113.8,43.8,114,43.6,114.2z"/>
			<path class="st5" d="M45.3,117.6c-0.1,0.2-0.3,0.2-0.6,0.1c-0.4-0.3-0.8-0.5-1.1-0.8c-0.3-0.2-0.3-0.4-0.2-0.6
				c0.5-0.7,1-1.4,1.5-2.1c0.1-0.2,0.3-0.2,0.6-0.1c0.4,0.2,0.7,0.5,1.1,0.7c0.3,0.2,0.3,0.4,0.2,0.6c-0.2,0.3-0.4,0.7-0.6,1
				c-0.1,0-0.2,0-0.2,0c-0.4-0.3-0.9-0.6-1.3-0.9c-0.2,0.3-0.5,0.7-0.7,1c0.3,0.2,0.7,0.5,1,0.7c0.1-0.2,0.2-0.3,0.3-0.5
				c0.2,0.1,0.3,0.2,0.5,0.3C45.5,117.3,45.4,117.4,45.3,117.6z M45.7,116c0.2-0.3,0.4-0.6,0.5-0.8c-0.3-0.2-0.6-0.4-1-0.7
				c-0.2,0.3-0.4,0.5-0.6,0.8C45,115.6,45.3,115.8,45.7,116z"/>
			<path class="st5" d="M48.1,119.8c-0.2-0.1-0.3-0.2-0.5-0.3c0,0,0-0.1,0-0.1c-0.2-0.1-0.4-0.2-0.6-0.3c-0.3-0.1-0.5-0.2-0.6-0.3
				c-0.3-0.2-0.3-0.3-0.2-0.6c0.2-0.3,0.4-0.7,0.6-1c0.1-0.2,0.3-0.2,0.6-0.1c0.4,0.2,0.7,0.4,1.1,0.6c0.2-0.3,0.3-0.6,0.5-0.9
				c-0.3-0.2-0.7-0.4-1-0.6c-0.1,0.2-0.2,0.3-0.3,0.5c-0.2-0.1-0.3-0.2-0.5-0.3c0.1-0.2,0.2-0.3,0.3-0.5c0.1-0.2,0.3-0.3,0.6-0.1
				c0.4,0.2,0.7,0.4,1.1,0.6c0.3,0.1,0.3,0.3,0.2,0.6C49.1,118,48.6,118.9,48.1,119.8z M47.9,119.1c0.2-0.3,0.4-0.7,0.6-1
				c-0.4-0.2-0.7-0.4-1.1-0.6c-0.2,0.3-0.4,0.7-0.6,1C47.1,118.7,47.5,118.9,47.9,119.1z"/>
			<path class="st5" d="M51.3,121.4c-0.2-0.1-0.3-0.2-0.5-0.2c0,0,0-0.1,0-0.1c-0.6-0.2-0.9-0.3-0.9-0.3c-0.2-0.1-0.4-0.3-0.4-0.4
				c-0.1-0.2-0.1-0.4,0-0.5c0.3-0.6,0.6-1.1,0.9-1.7c0.1-0.2,0.2-0.3,0.4-0.3c0.2,0,0.4,0,0.6,0.1c0.3,0.1,0.5,0.3,0.8,0.4
				c0.3-0.6,0.6-1.2,0.9-1.8c0.2,0.1,0.3,0.1,0.5,0.2C52.8,118.2,52.1,119.8,51.3,121.4z M51,120.8c0.4-0.8,0.7-1.5,1.1-2.3
				c-0.2-0.1-0.4-0.2-0.7-0.3c-0.3-0.1-0.5-0.1-0.6,0.1c-0.3,0.5-0.5,1.1-0.8,1.6c-0.1,0.2,0,0.4,0.2,0.5
				C50.3,120.5,50.6,120.6,51,120.8z"/>
			<path class="st5" d="M54.6,118.4c-0.2-0.1-0.3-0.1-0.5-0.2c0.1-0.2,0.2-0.4,0.2-0.5c0.2,0.1,0.3,0.1,0.5,0.2
				C54.7,118,54.6,118.2,54.6,118.4z M53,122.1c-0.2-0.1-0.3-0.1-0.5-0.2c0.4-1,0.9-2,1.3-3c0.2,0.1,0.3,0.1,0.5,0.2
				C53.8,120.1,53.4,121.1,53,122.1z"/>
			<path class="st5" d="M56.3,123.4c-0.2-0.1-0.4-0.1-0.5-0.2c0.3-0.9,0.7-1.8,1-2.7c-0.4-0.1-0.7-0.3-1.1-0.4
				c-0.4,0.9-0.7,1.8-1.1,2.7c-0.2-0.1-0.3-0.1-0.5-0.2c0.4-1,0.8-2.1,1.2-3.1c0.2,0.1,0.3,0.1,0.5,0.2c0,0,0,0.1,0,0.1
				c0.2,0.1,0.4,0.1,0.6,0.2c0.2,0.1,0.4,0.1,0.6,0.2c0.3,0.1,0.4,0.3,0.3,0.5C57,121.5,56.6,122.5,56.3,123.4z"/>
			<path class="st5" d="M59.4,125.3c-0.1,0.2-0.3,0.3-0.6,0.2c-0.4-0.1-0.9-0.3-1.3-0.4c-0.3-0.1-0.4-0.3-0.3-0.6c0,0,0-0.1,0.1-0.2
				c0-0.1,0-0.1,0.1-0.2c0.2,0.1,0.4,0.1,0.5,0.2c0,0.1-0.1,0.3-0.1,0.4c0.4,0.1,0.8,0.2,1.1,0.3c0.1-0.3,0.2-0.6,0.2-0.8
				c-0.3-0.1-0.6-0.2-0.9-0.3c-0.2-0.1-0.4-0.2-0.5-0.4c-0.1-0.2-0.1-0.4-0.1-0.6c0.2-0.6,0.4-1.2,0.6-1.8c0.1-0.2,0.2-0.3,0.3-0.4
				c0.2-0.1,0.4-0.1,0.6,0c0.1,0,0.3,0.1,0.9,0.4c0,0,0-0.1,0-0.1c0.2,0,0.3,0.1,0.5,0.1C60.1,122.6,59.8,124,59.4,125.3z
				 M59.2,123.9c0.2-0.8,0.5-1.6,0.7-2.4c-0.4-0.1-0.6-0.2-0.7-0.2c-0.3-0.1-0.5,0-0.5,0.2c-0.2,0.6-0.4,1.1-0.5,1.7
				c-0.1,0.2,0,0.4,0.3,0.5C58.7,123.8,59,123.9,59.2,123.9z"/>
			<path class="st5" d="M66.7,122.6c-0.4,1.1-0.9,2.1-1.3,3.2c-0.2,0-0.3-0.1-0.5-0.1c0-0.9-0.1-1.7-0.1-2.6c-0.3,0.8-0.7,1.6-1,2.4
				c-0.2,0-0.3-0.1-0.5-0.1c0-1.1-0.1-2.3-0.1-3.4c0.2,0,0.3,0.1,0.5,0.1c0,0.9,0,1.7,0,2.6c0.4-0.8,0.7-1.6,1.1-2.4
				c0.1,0,0.3,0.1,0.4,0.1c0,0.9,0.1,1.7,0.1,2.6c0.3-0.8,0.6-1.6,1-2.4C66.4,122.5,66.6,122.6,66.7,122.6z"/>
			<path class="st5" d="M68.3,122.1c-0.2,0-0.3,0-0.5-0.1c0-0.2,0.1-0.4,0.1-0.6c0.2,0,0.3,0,0.5,0.1
				C68.3,121.7,68.3,121.9,68.3,122.1z M67.8,126.1c-0.2,0-0.4,0-0.5-0.1c0.1-1.1,0.3-2.2,0.4-3.3c0.2,0,0.3,0,0.5,0.1
				C68,123.9,67.9,125,67.8,126.1z"/>
			<path class="st5" d="M71.3,126.4c-0.2,0-0.4,0-0.6,0c0.1-1,0.1-1.9,0.2-2.9c-0.4,0-0.8,0-1.1-0.1c-0.1,1-0.2,1.9-0.3,2.9
				c-0.2,0-0.4,0-0.5-0.1c0.1-1.1,0.2-2.2,0.3-3.3c0.2,0,0.3,0,0.5,0c0,0,0,0.1,0,0.1c0.2,0,0.4,0,0.6,0c0.3,0,0.5,0,0.6,0
				c0.3,0,0.4,0.1,0.4,0.4C71.4,124.4,71.3,125.4,71.3,126.4z"/>
			<path class="st5" d="M74.8,127.4c0,0.3-0.2,0.4-0.5,0.4c-0.4,0-0.9,0-1.3,0c-0.3,0-0.5-0.2-0.5-0.5c0,0,0-0.1,0-0.2
				c0-0.1,0-0.1,0-0.2c0.2,0,0.4,0,0.5,0c0,0.1,0,0.3,0,0.4c0.4,0,0.8,0,1.2,0c0-0.3,0-0.6,0-0.9c-0.3,0-0.6,0-0.9,0
				c-0.2,0-0.4-0.1-0.6-0.2c-0.2-0.1-0.2-0.3-0.2-0.5c0-0.6,0-1.3,0.1-1.9c0-0.2,0.1-0.4,0.2-0.5c0.1-0.1,0.3-0.2,0.5-0.2
				c0.1,0,0.4,0,0.9,0.1c0,0,0-0.1,0-0.1c0.2,0,0.3,0,0.5,0C74.7,124.6,74.8,126,74.8,127.4z M74.2,126.1c0-0.8,0-1.7,0-2.5
				c-0.4,0-0.7,0-0.7,0c-0.3,0-0.4,0.1-0.4,0.4c0,0.6,0,1.2,0,1.8c0,0.3,0.1,0.4,0.4,0.4C73.7,126.1,74,126.1,74.2,126.1z"/>
			<path class="st5" d="M78.1,126c0,0.3-0.1,0.4-0.4,0.4c-0.4,0-0.8,0-1.3,0.1c-0.3,0-0.5-0.1-0.5-0.4c0-0.3,0-0.5,0-0.8
				c0.2,0,0.4,0,0.5,0c0,0.2,0,0.5,0,0.7c0.4,0,0.7,0,1.1-0.1c0-0.2,0-0.4,0-0.7c-0.5-0.3-1-0.6-1.4-0.9c-0.1-0.1-0.2-0.2-0.2-0.3
				c0-0.2,0-0.4,0-0.6c0-0.3,0.1-0.4,0.4-0.4c0.4,0,0.8,0,1.2-0.1c0.3,0,0.4,0.1,0.5,0.4c0,0.2,0,0.4,0,0.7c-0.2,0-0.3,0-0.5,0
				c0-0.2,0-0.4,0-0.7c-0.4,0-0.7,0-1.1,0.1c0,0.2,0,0.4,0,0.6c0.5,0.3,1,0.6,1.5,0.9c0.1,0.1,0.2,0.2,0.2,0.3
				C78.1,125.5,78.1,125.8,78.1,126z"/>
			<path class="st5" d="M82.6,125.8c-0.3,0-0.5,0.1-0.8,0.1c-0.3,0-0.5-0.1-0.5-0.3c-0.1-0.8-0.2-1.7-0.3-2.5c-0.2,0-0.3,0-0.5,0.1
				c0-0.1,0-0.3,0-0.4c0.2,0,0.3,0,0.5-0.1c0-0.3-0.1-0.7-0.1-1c0.2,0,0.3,0,0.5-0.1c0,0.3,0.1,0.7,0.1,1c0.2,0,0.4-0.1,0.7-0.1
				c0,0.1,0,0.3,0.1,0.4c-0.2,0-0.4,0.1-0.7,0.1c0.1,0.8,0.2,1.7,0.4,2.5c0.2,0,0.5-0.1,0.7-0.1C82.6,125.6,82.6,125.7,82.6,125.8z"
				/>
			<path class="st5" d="M85.8,124.9c0.1,0.3-0.1,0.4-0.4,0.5c-0.5,0.1-0.9,0.2-1.4,0.3c-0.3,0.1-0.5,0-0.5-0.3
				c-0.1-0.8-0.3-1.7-0.4-2.5c0-0.3,0.1-0.4,0.4-0.5c0.4-0.1,0.9-0.2,1.3-0.3c0.3-0.1,0.5,0,0.5,0.3C85.5,123.2,85.6,124,85.8,124.9
				z M85.3,125c-0.2-0.8-0.3-1.6-0.5-2.5c-0.4,0.1-0.8,0.2-1.1,0.2c0.2,0.8,0.3,1.7,0.5,2.5C84.5,125.1,84.9,125,85.3,125z"/>
			<path class="st5" d="M90.4,124.1c-0.3,0.1-0.5,0.2-0.8,0.2c-0.3,0.1-0.5,0-0.6-0.2c-0.2-0.8-0.5-1.6-0.7-2.4
				c-0.1,0-0.3,0.1-0.4,0.1c0-0.1-0.1-0.3-0.1-0.4c0.1,0,0.3-0.1,0.4-0.1c-0.1-0.3-0.2-0.7-0.3-1c0.2,0,0.3-0.1,0.5-0.1
				c0.1,0.3,0.2,0.7,0.3,1c0.2-0.1,0.4-0.1,0.6-0.2c0,0.1,0.1,0.3,0.1,0.4c-0.2,0.1-0.4,0.1-0.6,0.2c0.2,0.8,0.5,1.6,0.7,2.4
				c0.2-0.1,0.4-0.1,0.7-0.2C90.3,123.8,90.3,123.9,90.4,124.1z"/>
			<path class="st5" d="M93.5,123c-0.2,0.1-0.3,0.1-0.5,0.2c-0.3-0.9-0.7-1.8-1-2.7c-0.4,0.1-0.7,0.3-1.1,0.4
				c0.3,0.9,0.6,1.8,0.9,2.7c-0.2,0.1-0.4,0.1-0.5,0.2c-0.6-1.7-1.1-3.4-1.7-5.1c0.2-0.1,0.3-0.1,0.5-0.2c0.2,0.7,0.5,1.3,0.7,2
				c0.2-0.1,0.4-0.2,0.6-0.3c0.2-0.1,0.4-0.2,0.6-0.3c0.3-0.1,0.5,0,0.5,0.2C92.8,121.1,93.2,122.1,93.5,123z"/>
			<path class="st5" d="M96.6,121.3c0.1,0.2,0,0.4-0.3,0.5c-0.4,0.2-0.8,0.4-1.2,0.5c-0.3,0.1-0.5,0.1-0.6-0.2
				c-0.3-0.8-0.6-1.6-1-2.4c-0.1-0.2,0-0.4,0.3-0.5c0.4-0.2,0.8-0.3,1.2-0.5c0.3-0.1,0.5-0.1,0.6,0.2c0.2,0.4,0.3,0.7,0.5,1.1
				c0,0.1-0.1,0.1-0.1,0.2c-0.5,0.2-0.9,0.4-1.4,0.6c0.2,0.4,0.3,0.7,0.5,1.1c0.4-0.2,0.7-0.3,1.1-0.5c-0.1-0.2-0.2-0.4-0.2-0.6
				c0.2-0.1,0.3-0.1,0.5-0.2C96.4,120.9,96.5,121.1,96.6,121.3z M95.4,120.1c-0.1-0.3-0.3-0.6-0.4-0.9c-0.3,0.2-0.7,0.3-1,0.4
				c0.1,0.3,0.3,0.6,0.4,0.9C94.7,120.4,95.1,120.3,95.4,120.1z"/>
			<path class="st5" d="M98.5,115.2c-0.2,0.1-0.4,0.2-0.6,0.4c0.3,0.5,0.5,0.9,0.8,1.4c0.2-0.1,0.4-0.2,0.6-0.3
				c0.1,0.1,0.1,0.2,0.2,0.3c-0.2,0.1-0.4,0.2-0.6,0.3c0.5,0.9,0.9,1.7,1.4,2.6c-0.2,0.1-0.3,0.2-0.5,0.3c-0.5-0.9-0.9-1.7-1.4-2.6
				c-0.1,0.1-0.3,0.1-0.4,0.2c-0.1-0.1-0.1-0.2-0.2-0.4c0.1-0.1,0.3-0.1,0.4-0.2c-0.3-0.5-0.5-1-0.8-1.4c-0.1-0.2-0.1-0.4,0.2-0.5
				c0.2-0.1,0.5-0.3,0.7-0.4C98.4,114.9,98.5,115.1,98.5,115.2z"/>
			<path class="st5" d="M103.7,117.8c-0.2,0.1-0.3,0.2-0.5,0.3c0,0,0-0.1,0-0.1c-0.2,0.1-0.4,0.3-0.5,0.4c-0.2,0.2-0.4,0.3-0.6,0.4
				c-0.3,0.2-0.5,0.1-0.6-0.1c-0.5-0.9-1-1.7-1.5-2.6c0.2-0.1,0.3-0.2,0.5-0.3c0.5,0.8,1,1.7,1.5,2.5c0.4-0.2,0.7-0.4,1.1-0.7
				c-0.5-0.8-1-1.6-1.5-2.4c0.1-0.1,0.3-0.2,0.4-0.3C102.5,116,103.1,116.9,103.7,117.8z"/>
			<path class="st5" d="M106,116.3c-0.2,0.2-0.4,0.3-0.7,0.5c-0.3,0.2-0.5,0.2-0.6,0c-0.5-0.7-1-1.4-1.4-2.1
				c-0.1,0.1-0.3,0.2-0.4,0.3c-0.1-0.1-0.1-0.2-0.2-0.3c0.1-0.1,0.3-0.2,0.4-0.3c-0.2-0.3-0.4-0.6-0.6-0.9c0.1-0.1,0.3-0.2,0.4-0.3
				c0.2,0.3,0.4,0.6,0.6,0.8c0.2-0.1,0.4-0.3,0.6-0.4c0.1,0.1,0.2,0.2,0.2,0.3c-0.2,0.1-0.4,0.3-0.6,0.4c0.5,0.7,1,1.4,1.4,2.1
				c0.2-0.1,0.4-0.3,0.6-0.4C105.8,116.1,105.9,116.2,106,116.3z"/>
			<path class="st5" d="M108.7,114.2c-0.1,0.1-0.3,0.2-0.4,0.4c0,0,0,0-0.1-0.1c-0.2,0.2-0.3,0.3-0.5,0.5c-0.2,0.2-0.4,0.3-0.5,0.5
				c-0.2,0.2-0.4,0.2-0.6,0c-0.6-0.8-1.2-1.6-1.8-2.4c0.1-0.1,0.3-0.2,0.4-0.3c0.6,0.8,1.2,1.5,1.8,2.3c0.3-0.3,0.7-0.5,1-0.8
				c-0.6-0.8-1.2-1.5-1.8-2.3c0.1-0.1,0.3-0.2,0.4-0.3C107.3,112.5,108,113.3,108.7,114.2z"/>
			<path class="st5" d="M109.8,110.2c-0.1,0.1-0.3,0.3-0.4,0.4c-0.2-0.2-0.3-0.3-0.5-0.5c-0.2,0.2-0.5,0.5-0.7,0.7
				c0.6,0.7,1.3,1.4,1.9,2.2c-0.1,0.1-0.3,0.3-0.4,0.4c-0.7-0.8-1.4-1.7-2.2-2.5c0.1-0.1,0.3-0.2,0.4-0.4c0,0,0,0,0.1,0.1
				c0.1-0.1,0.2-0.3,0.4-0.4c0.1-0.2,0.3-0.3,0.4-0.4c0.2-0.2,0.4-0.2,0.6,0C109.5,109.9,109.6,110.1,109.8,110.2z"/>
			<path class="st5" d="M113.5,109.1c0.2,0.2,0.2,0.4-0.1,0.6c-0.3,0.3-0.7,0.7-1,1c-0.2,0.2-0.4,0.3-0.6,0.1
				c-0.6-0.6-1.2-1.2-1.8-1.8c-0.2-0.2-0.2-0.4,0.1-0.6c0.3-0.3,0.6-0.6,0.9-1c0.2-0.2,0.4-0.3,0.6-0.1c0.3,0.3,0.6,0.5,0.9,0.8
				c0,0.1,0,0.2,0,0.3c-0.4,0.4-0.7,0.8-1.1,1.2c0.3,0.3,0.6,0.6,0.8,0.9c0.3-0.3,0.6-0.6,0.9-0.9c-0.1-0.1-0.3-0.3-0.4-0.4
				c0.1-0.1,0.3-0.3,0.4-0.4C113.2,108.9,113.4,109,113.5,109.1z M112,108.5c-0.2-0.2-0.5-0.5-0.7-0.7c-0.3,0.3-0.6,0.6-0.8,0.9
				c0.2,0.2,0.5,0.5,0.7,0.7C111.4,109.1,111.7,108.8,112,108.5z"/>
		</g>
	</g>
	<g>
		<g>
			<path class="st6" d="M47.9,135c-0.2-0.1-0.4-0.2-0.6-0.4c-0.1-0.8-0.1-1.6-0.1-2.4c-0.3,0.6-0.7,1.2-1,1.7
				c-0.2-0.1-0.4-0.2-0.6-0.3c1.1-1.8,2.2-3.6,3.3-5.5c0.2,0.1,0.3,0.2,0.5,0.3c-0.7,1.2-1.4,2.3-2.1,3.5c0.6-0.3,1.2-0.5,1.8-0.8
				c0.2,0.1,0.4,0.2,0.6,0.3c0,0,0,0,0,0c-0.7,0.3-1.3,0.6-2,0.9C47.8,133.2,47.9,134.1,47.9,135z"/>
			<path class="st6" d="M51.5,136.8c-0.2-0.1-0.4-0.2-0.6-0.3c0,0,0-0.1,0-0.1c-0.2-0.1-0.5-0.2-0.7-0.3c-0.3-0.1-0.5-0.2-0.7-0.3
				c-0.3-0.2-0.4-0.4-0.3-0.6c0.2-0.4,0.4-0.9,0.7-1.3c0.1-0.3,0.4-0.3,0.7-0.2c0.4,0.2,0.9,0.4,1.3,0.7c0.2-0.4,0.3-0.7,0.5-1.1
				c-0.4-0.2-0.8-0.4-1.2-0.6c-0.1,0.2-0.2,0.4-0.3,0.6c-0.2-0.1-0.4-0.2-0.5-0.3c0.1-0.2,0.2-0.4,0.3-0.6c0.1-0.3,0.4-0.3,0.7-0.2
				c0.4,0.2,0.9,0.4,1.3,0.7c0.3,0.1,0.4,0.4,0.3,0.6C52.5,134.7,52,135.7,51.5,136.8z M51.1,136.1c0.2-0.4,0.4-0.8,0.6-1.3
				c-0.4-0.2-0.9-0.4-1.3-0.6c-0.2,0.4-0.4,0.9-0.6,1.3C50.3,135.7,50.7,135.9,51.1,136.1z"/>
			<path class="st6" d="M54.6,138.1c-0.3-0.1-0.6-0.2-0.9-0.3c-0.3-0.1-0.4-0.4-0.3-0.6c0.4-0.9,0.8-1.9,1.2-2.8
				c-0.2-0.1-0.3-0.1-0.5-0.2c0.1-0.1,0.1-0.3,0.2-0.4c0.2,0.1,0.3,0.1,0.5,0.2c0.2-0.4,0.3-0.8,0.5-1.1c0.2,0.1,0.4,0.2,0.5,0.2
				c-0.2,0.4-0.3,0.8-0.5,1.1c0.2,0.1,0.5,0.2,0.7,0.3c-0.1,0.1-0.1,0.3-0.2,0.4c-0.2-0.1-0.5-0.2-0.7-0.3c-0.4,0.9-0.8,1.9-1.1,2.8
				c0.3,0.1,0.5,0.2,0.8,0.3C54.7,137.8,54.6,138,54.6,138.1z"/>
			<path class="st6" d="M58.5,139.5c-0.2-0.1-0.4-0.1-0.6-0.2c0.4-1.1,0.7-2.2,1.1-3.3c-0.4-0.1-0.9-0.3-1.3-0.4
				c-0.4,1.1-0.8,2.2-1.1,3.3c-0.2-0.1-0.4-0.1-0.6-0.2c0.7-2,1.5-4,2.2-6c0.2,0.1,0.4,0.1,0.5,0.2c-0.3,0.8-0.6,1.6-0.8,2.4
				c0.2,0.1,0.5,0.1,0.7,0.2c0.3,0.1,0.5,0.1,0.7,0.2c0.3,0.1,0.4,0.3,0.3,0.6C59.2,137.2,58.8,138.3,58.5,139.5z"/>
			<path class="st6" d="M64.7,141c-0.2,0-0.4-0.1-0.6-0.1c0.2-1.1,0.5-2.3,0.7-3.4c-0.4-0.1-0.9-0.2-1.3-0.2
				c-0.3,1.1-0.5,2.2-0.8,3.4c-0.2,0-0.4-0.1-0.6-0.1c0.3-1.1,0.5-2.3,0.8-3.4c-0.4-0.1-0.9-0.2-1.3-0.3c-0.3,1.1-0.6,2.2-0.9,3.3
				c-0.2-0.1-0.4-0.1-0.6-0.2c0.4-1.3,0.7-2.6,1.1-3.8c0.2,0.1,0.4,0.1,0.6,0.2c0,0,0,0.1,0,0.1c0.2,0,0.5,0.1,0.7,0.1
				c0.3,0,0.5,0.1,0.7,0.1c0.2,0,0.3,0.1,0.4,0.2c0.3,0,0.5,0.1,0.8,0.1c0.3,0,0.6,0.1,0.7,0.1c0.3,0.1,0.5,0.2,0.4,0.5
				C65.1,138.7,64.9,139.9,64.7,141z"/>
			<path class="st6" d="M68.9,141.7c-0.2,0-0.4,0-0.6-0.1c0,0,0-0.1,0-0.1c-0.3,0-0.5,0-0.8,0c-0.3,0-0.6,0-0.8-0.1
				c-0.3-0.1-0.5-0.2-0.5-0.5c0.1-0.5,0.2-1,0.2-1.4c0-0.3,0.2-0.4,0.6-0.4c0.5,0.1,1,0.1,1.4,0.2c0-0.4,0.1-0.8,0.1-1.2
				c-0.4-0.1-0.9-0.1-1.3-0.2c0,0.2-0.1,0.4-0.1,0.7c-0.2,0-0.4-0.1-0.6-0.1c0-0.2,0.1-0.4,0.1-0.7c0-0.3,0.2-0.4,0.6-0.4
				c0.5,0.1,1,0.1,1.4,0.2c0.3,0,0.5,0.2,0.4,0.5C69.1,139.3,69,140.5,68.9,141.7z M68.3,141.1c0.1-0.5,0.1-0.9,0.2-1.4
				c-0.5-0.1-0.9-0.1-1.4-0.2c-0.1,0.5-0.1,0.9-0.2,1.4C67.4,141,67.8,141,68.3,141.1z"/>
			<path class="st6" d="M73.2,142c-0.2,0-0.4,0-0.6,0c0.1-1.2,0.1-2.3,0.2-3.5c-0.4,0-0.9,0-1.3-0.1c-0.1,1.1-0.2,2.3-0.3,3.4
				c-0.2,0-0.4,0-0.6-0.1c0.1-1.3,0.2-2.6,0.3-4c0.2,0,0.4,0,0.6,0c0,0,0,0.1,0,0.1c0.2,0,0.5,0,0.7,0c0.3,0,0.5,0,0.7,0
				c0.3,0,0.5,0.2,0.5,0.5C73.2,139.6,73.2,140.8,73.2,142z"/>
			<path class="st6" d="M77.4,142c-0.2,0-0.4,0-0.6,0c0,0,0-0.1,0-0.1c-0.7,0.1-1.1,0.2-1.1,0.2c-0.3,0-0.5-0.1-0.7-0.2
				c-0.2-0.2-0.2-0.4-0.2-0.6c0-0.8,0-1.6,0-2.3c0-0.2,0.1-0.4,0.3-0.6c0.2-0.2,0.4-0.2,0.7-0.2c0.3,0,0.7,0,1,0
				c0-0.8,0-1.6-0.1-2.4c0.2,0,0.4,0,0.6,0C77.3,137.7,77.3,139.9,77.4,142z M76.8,141.5c0-1-0.1-2-0.1-3c-0.3,0-0.6,0-0.8,0
				c-0.3,0-0.5,0.2-0.5,0.5c0,0.7,0,1.4,0,2.1c0,0.3,0.2,0.5,0.5,0.5C76,141.6,76.3,141.6,76.8,141.5z"/>
			<path class="st6" d="M81.7,141.7c-0.2,0-0.4,0-0.6,0.1c0,0,0-0.1,0-0.1c-0.3,0.1-0.5,0.1-0.8,0.2c-0.3,0.1-0.6,0.1-0.8,0.1
				c-0.3,0-0.5-0.1-0.6-0.4c-0.1-1.2-0.2-2.4-0.2-3.6c0.2,0,0.4,0,0.6,0c0.1,1.2,0.2,2.3,0.3,3.5c0.5,0,0.9-0.1,1.4-0.2
				c-0.1-1.1-0.2-2.3-0.3-3.4c0.2,0,0.4,0,0.6-0.1C81.4,139,81.6,140.4,81.7,141.7z"/>
			<path class="st6" d="M83.9,140.7c-0.1,0.4-0.2,0.8-0.2,1.2c-0.2,0-0.3,0-0.5,0.1c0-0.4,0-0.8,0-1.2
				C83.4,140.7,83.7,140.7,83.9,140.7z"/>
			<path class="st6" d="M91,139.8c-0.2,0-0.3,0.1-0.5,0.1c-1.1-1.3-2.1-2.7-3.1-4.1c0.4,1.5,0.7,3.1,1.1,4.6c-0.2,0-0.4,0.1-0.6,0.1
				c-0.5-2.1-0.9-4.2-1.4-6.2c0.1,0,0.3-0.1,0.4-0.1c0.9,1.4,1.9,2.7,2.9,4c-0.4-1.5-0.8-3-1.2-4.5c0.2,0,0.4-0.1,0.5-0.2
				C89.9,135.7,90.4,137.8,91,139.8z"/>
			<path class="st6" d="M95,138c0.1,0.3,0,0.5-0.4,0.6c-0.5,0.2-1,0.3-1.5,0.5c-0.3,0.1-0.6,0-0.7-0.3c-0.3-1-0.6-1.9-0.9-2.9
				c-0.1-0.3,0-0.5,0.3-0.6c0.5-0.2,0.9-0.3,1.4-0.5c0.3-0.1,0.5,0,0.6,0.3c0.2,0.4,0.3,0.9,0.5,1.3c0,0.1-0.1,0.2-0.1,0.3
				c-0.5,0.2-1.1,0.4-1.7,0.6c0.2,0.5,0.3,0.9,0.5,1.4c0.4-0.1,0.9-0.3,1.3-0.5c-0.1-0.2-0.2-0.5-0.2-0.7c0.2-0.1,0.4-0.1,0.6-0.2
				C94.8,137.6,94.9,137.8,95,138z M93.8,136.5c-0.1-0.4-0.3-0.8-0.4-1.1c-0.4,0.1-0.8,0.3-1.2,0.4c0.1,0.4,0.3,0.8,0.4,1.1
				C92.9,136.8,93.4,136.7,93.8,136.5z"/>
			<path class="st6" d="M98.9,136c0.1,0.2,0.1,0.4,0,0.7c-0.1,0.2-0.3,0.4-0.6,0.5c-0.3,0.1-0.7,0.3-1,0.4c0.2,0.5,0.4,0.9,0.6,1.4
				c-0.2,0.1-0.4,0.2-0.6,0.3c-0.7-1.7-1.4-3.4-2.1-5.1c0.2-0.1,0.4-0.2,0.6-0.2c0,0,0,0.1,0,0.1c0.2-0.1,0.4-0.2,0.6-0.4
				c0.3-0.2,0.5-0.3,0.6-0.3c0.3-0.1,0.5-0.1,0.7,0.2C98.1,134.4,98.5,135.2,98.9,136z M98.2,136.2c-0.3-0.8-0.7-1.6-1-2.3
				c-0.4,0.2-0.8,0.4-1.2,0.6c0.4,0.9,0.8,1.8,1.1,2.7c0.3-0.1,0.6-0.2,0.8-0.4C98.3,136.7,98.4,136.5,98.2,136.2z"/>
			<path class="st6" d="M103.1,134.8c-0.2,0.1-0.4,0.2-0.6,0.3c0,0,0-0.1-0.1-0.1c-0.2,0.2-0.4,0.3-0.7,0.4
				c-0.3,0.2-0.5,0.3-0.7,0.4c-0.3,0.2-0.5,0.1-0.7-0.2c-0.2-0.4-0.4-0.9-0.6-1.3c-0.1-0.3,0-0.5,0.3-0.7c0.4-0.2,0.9-0.5,1.3-0.7
				c-0.2-0.4-0.4-0.7-0.6-1.1c-0.4,0.2-0.8,0.4-1.2,0.6c0.1,0.2,0.2,0.4,0.3,0.6c-0.2,0.1-0.4,0.2-0.5,0.3c-0.1-0.2-0.2-0.4-0.3-0.6
				c-0.1-0.3-0.1-0.5,0.3-0.6c0.4-0.2,0.9-0.5,1.3-0.7c0.3-0.2,0.5-0.1,0.7,0.2C102,132.8,102.5,133.8,103.1,134.8z M102.3,134.7
				c-0.2-0.4-0.4-0.8-0.7-1.2c-0.4,0.2-0.8,0.4-1.3,0.7c0.2,0.4,0.4,0.8,0.6,1.3C101.4,135.2,101.9,134.9,102.3,134.7z"/>
			<path class="st6" d="M105.1,133.6c-0.2,0.1-0.4,0.2-0.6,0.3c-1.1-1.8-2.2-3.7-3.3-5.5c0.2-0.1,0.3-0.2,0.5-0.3
				C102.9,130,104,131.8,105.1,133.6z"/>
		</g>
	</g>
	<g>
		<g>
			<path class="st6" d="M50.9,31.1c0,0.1,0.1,0.2,0,0.3c0,0.1-0.1,0.2-0.2,0.2c-0.4,0.2-0.8,0.4-1.1,0.6c-0.1,0.1-0.2,0.1-0.3,0
				c-0.1,0-0.2-0.1-0.2-0.2c-0.7-1.1-1.3-2.3-2-3.4c0-0.1-0.1-0.2,0-0.3c0-0.1,0.1-0.2,0.2-0.2c0.4-0.2,0.8-0.5,1.2-0.7
				c0.1-0.1,0.2-0.1,0.3-0.1c0.1,0,0.2,0.1,0.2,0.2c0.2,0.3,0.3,0.6,0.5,0.9c-0.1,0.1-0.3,0.1-0.4,0.2c-0.2-0.3-0.3-0.6-0.5-0.9
				c-0.4,0.2-0.7,0.4-1.1,0.6c0.6,1.1,1.3,2.2,1.9,3.3c0.3-0.2,0.6-0.4,1-0.6c-0.3-0.5-0.5-0.9-0.8-1.4c-0.2,0.1-0.3,0.2-0.5,0.3
				c-0.1-0.1-0.1-0.2-0.2-0.3c0.3-0.2,0.6-0.3,0.9-0.5C50.3,30,50.6,30.5,50.9,31.1z"/>
			<path class="st6" d="M53.5,29.8c0.1,0.2,0,0.3-0.2,0.4c-0.3,0.1-0.6,0.3-0.9,0.5c-0.2,0.1-0.4,0.1-0.5-0.1c-0.3-0.7-0.7-1.3-1-2
				c-0.1-0.2,0-0.4,0.2-0.5c0.3-0.2,0.7-0.3,1-0.5c0.2-0.1,0.4-0.1,0.5,0.1C52.9,28.5,53.2,29.2,53.5,29.8z M53.1,30
				c-0.3-0.7-0.6-1.3-0.9-2c-0.3,0.1-0.6,0.3-0.9,0.4c0.3,0.6,0.6,1.3,1,1.9C52.6,30.3,52.8,30.1,53.1,30z"/>
			<path class="st6" d="M55.1,26.4c0.1,1,0.2,2,0.4,2.9c-0.1,0-0.2,0.1-0.3,0.1c-0.6-0.8-1.2-1.5-1.8-2.3c0.1-0.1,0.3-0.1,0.4-0.2
				c0.5,0.6,0.9,1.2,1.4,1.9c-0.1-0.8-0.2-1.5-0.4-2.3C54.8,26.5,55,26.4,55.1,26.4z"/>
			<path class="st6" d="M58,28.3c-0.2,0.1-0.4,0.1-0.5,0.2c-0.2,0.1-0.4,0-0.4-0.2c-0.3-0.7-0.5-1.4-0.8-2c-0.1,0-0.2,0.1-0.4,0.1
				c0-0.1-0.1-0.2-0.1-0.3c0.1,0,0.2-0.1,0.4-0.1c-0.1-0.3-0.2-0.6-0.3-0.8c0.1-0.1,0.3-0.1,0.4-0.2c0.1,0.3,0.2,0.6,0.3,0.8
				c0.2-0.1,0.3-0.1,0.5-0.2c0,0.1,0.1,0.2,0.1,0.3c-0.2,0.1-0.3,0.1-0.5,0.2c0.2,0.7,0.5,1.4,0.7,2c0.2-0.1,0.3-0.1,0.5-0.2
				C57.9,28.1,58,28.2,58,28.3z"/>
			<path class="st6" d="M61.9,27.1c-0.5,0.1-1,0.3-1.5,0.4c-0.4-1.5-0.9-2.9-1.3-4.4c0.1,0,0.3-0.1,0.4-0.1c0.4,1.4,0.8,2.7,1.2,4.1
				c0.4-0.1,0.7-0.2,1.1-0.3C61.9,26.9,61.9,27,61.9,27.1z"/>
			<path class="st6" d="M62.4,23.4c-0.1,0-0.3,0.1-0.4,0.1c0-0.2-0.1-0.3-0.1-0.5c0.1,0,0.3-0.1,0.4-0.1
				C62.4,23.1,62.4,23.3,62.4,23.4z M63.2,26.8c-0.1,0-0.3,0.1-0.4,0.1c-0.2-0.9-0.4-1.8-0.7-2.8c0.1,0,0.3-0.1,0.4-0.1
				C62.8,25,63,25.9,63.2,26.8z"/>
			<path class="st6" d="M65.8,26c0,0.2-0.1,0.3-0.3,0.4c-0.3,0.1-0.6,0.1-0.9,0.2c-0.2,0-0.4,0-0.4-0.3c-0.1-0.7-0.3-1.4-0.4-2.1
				c0-0.2,0-0.3,0.3-0.4c0.3-0.1,0.7-0.1,1-0.2c0.2,0,0.4,0,0.4,0.3c0,0.2,0.1,0.4,0.1,0.6c-0.1,0-0.3,0-0.4,0.1
				c0-0.2-0.1-0.4-0.1-0.5c-0.3,0.1-0.6,0.1-0.9,0.2c0.1,0.7,0.3,1.4,0.4,2.1c0.3-0.1,0.6-0.1,0.8-0.2c0-0.2-0.1-0.4-0.1-0.6
				c0.1,0,0.3,0,0.4-0.1C65.7,25.5,65.8,25.7,65.8,26z"/>
			<path class="st6" d="M67.3,26.1c-0.2,0-0.3,0-0.5,0.1c0-0.2-0.1-0.3-0.1-0.5c0.2,0,0.3,0,0.5-0.1C67.3,25.7,67.3,25.9,67.3,26.1z
				"/>
			<path class="st6" d="M70.1,25.4c0,0.1,0,0.2-0.1,0.2c-0.1,0.1-0.1,0.1-0.2,0.1c-0.4,0-0.8,0.1-1.2,0.1c-0.1,0-0.2,0-0.3-0.1
				c-0.1-0.1-0.1-0.1-0.1-0.2c0-0.4-0.1-0.8-0.1-1.2c0.1,0,0.3,0,0.4-0.1c0,0.4,0.1,0.7,0.1,1.1c0.3,0,0.7-0.1,1-0.1
				c-0.1-0.7-0.1-1.4-0.2-2.1c-0.5,0-1,0.1-1.5,0.2c-0.1-0.7-0.1-1.4-0.2-2.1c0.6-0.1,1.3-0.1,1.9-0.2c0,0.1,0,0.2,0,0.4
				c-0.5,0-1,0.1-1.4,0.1c0,0.4,0.1,0.9,0.1,1.3c0.4,0,0.8-0.1,1.1-0.1c0.1,0,0.2,0,0.3,0.1c0.1,0.1,0.1,0.1,0.1,0.2
				C70,23.9,70.1,24.7,70.1,25.4z"/>
			<path class="st6" d="M73.1,25.2c0,0.1,0,0.2-0.1,0.2c-0.1,0.1-0.1,0.1-0.2,0.1c-0.4,0-0.8,0-1.2,0.1c-0.1,0-0.2,0-0.2-0.1
				c-0.1-0.1-0.1-0.1-0.1-0.2c0-0.4,0-0.8-0.1-1.2c0.1,0,0.3,0,0.4,0c0,0.4,0,0.8,0.1,1.1c0.3,0,0.7,0,1,0c0-0.7,0-1.4-0.1-2.2
				c-0.5,0-1,0-1.5,0.1c0-0.7,0-1.4-0.1-2.1c0.6,0,1.3-0.1,1.9-0.1c0,0.1,0,0.2,0,0.4c-0.5,0-1,0-1.4,0.1c0,0.4,0,0.9,0,1.3
				c0.4,0,0.8,0,1.1,0c0.1,0,0.2,0,0.3,0.1C73,22.8,73,22.9,73,23C73,23.8,73.1,24.5,73.1,25.2z"/>
			<path class="st6" d="M76.1,25.3c0,0.1,0,0.2-0.1,0.2c-0.1,0.1-0.1,0.1-0.2,0.1c-0.4,0-0.8,0-1.2,0c-0.1,0-0.2,0-0.2-0.1
				c-0.1-0.1-0.1-0.1-0.1-0.2c0-0.3,0-0.7,0-1c0.1,0,0.3,0,0.4,0c0,0.3,0,0.7,0,1c0.3,0,0.7,0,1,0c0-0.6,0-1.1,0-1.7
				c-0.4,0-0.8,0-1.2,0c-0.1,0-0.2,0-0.3-0.1c-0.1-0.1-0.1-0.1-0.1-0.2c0-0.6,0-1.3,0-1.9c0-0.1,0-0.2,0.1-0.2
				c0.1-0.1,0.2-0.1,0.3-0.1c0.4,0,0.9,0,1.3,0c0.1,0,0.2,0,0.3,0.1c0.1,0.1,0.1,0.1,0.1,0.2C76.2,22.6,76.1,24,76.1,25.3z
				 M75.7,23.2c0-0.6,0-1.2,0-1.8c-0.4,0-0.8,0-1.1,0c0,0.6,0,1.2,0,1.8C75,23.1,75.3,23.2,75.7,23.2z"/>
			<path class="st6" d="M79.8,21.3c-0.9,1.4-1.7,2.9-2.5,4.4c-0.1,0-0.3,0-0.4,0c0,0,0,0,0,0c0.8-1.5,1.6-2.9,2.4-4.4
				C79.5,21.2,79.7,21.2,79.8,21.3C79.8,21.3,79.8,21.3,79.8,21.3z"/>
			<path class="st6" d="M82.2,25.9c0,0.1-0.1,0.2-0.1,0.2c-0.1,0-0.2,0.1-0.3,0.1C81.4,26.1,81,26,80.6,26c-0.1,0-0.2-0.1-0.2-0.1
				c-0.1-0.1-0.1-0.1-0.1-0.2c0.2-1.3,0.3-2.6,0.5-3.9c0-0.1,0.1-0.2,0.1-0.2c0.1-0.1,0.2-0.1,0.3-0.1c0.5,0.1,0.9,0.1,1.4,0.2
				c0.1,0,0.2,0.1,0.3,0.1c0.1,0.1,0.1,0.2,0.1,0.2C82.6,23.3,82.4,24.6,82.2,25.9z M81.8,25.8c0.2-1.3,0.4-2.5,0.6-3.8
				c-0.4-0.1-0.8-0.1-1.2-0.2c-0.2,1.3-0.3,2.6-0.5,3.8C81.1,25.7,81.4,25.7,81.8,25.8z"/>
			<path class="st6" d="M85.2,26.5c0,0.1-0.1,0.2-0.1,0.2c-0.1,0-0.2,0.1-0.3,0c-0.4-0.1-0.8-0.2-1.2-0.2c-0.1,0-0.2-0.1-0.2-0.1
				c-0.1-0.1-0.1-0.2-0.1-0.2c0.2-1.3,0.5-2.6,0.7-3.9c0-0.1,0.1-0.2,0.1-0.2c0.1,0,0.2-0.1,0.3,0c0.4,0.1,0.9,0.2,1.3,0.3
				c0.1,0,0.2,0.1,0.2,0.1c0.1,0.1,0.1,0.2,0,0.3c-0.1,0.3-0.1,0.7-0.2,1c-0.1,0-0.3-0.1-0.4-0.1c0.1-0.3,0.1-0.6,0.2-1
				c-0.4-0.1-0.7-0.2-1.1-0.2c-0.1,0.6-0.2,1.1-0.3,1.7c0.4,0.1,0.8,0.2,1.2,0.2c0.1,0,0.2,0.1,0.2,0.1c0,0.1,0.1,0.2,0,0.2
				C85.5,25.2,85.4,25.8,85.2,26.5z M84.8,26.3c0.1-0.6,0.3-1.2,0.4-1.8c-0.4-0.1-0.7-0.2-1.1-0.2c-0.1,0.6-0.2,1.2-0.3,1.8
				C84.1,26.2,84.5,26.2,84.8,26.3z"/>
			<path class="st6" d="M88,27.5c-0.6-0.2-1.2-0.3-1.8-0.5c0-0.1,0-0.1,0.1-0.2c0.7-0.8,1.4-1.6,2.2-2.4c0.1-0.4,0.2-0.7,0.3-1.1
				c-0.3-0.1-0.7-0.2-1-0.3c-0.1,0.3-0.2,0.7-0.3,1c-0.1,0-0.3-0.1-0.4-0.1c0.1-0.3,0.2-0.7,0.3-1c0-0.1,0.1-0.2,0.2-0.2
				c0.1,0,0.2,0,0.3,0c0.4,0.1,0.8,0.2,1.2,0.3c0.1,0,0.2,0.1,0.2,0.2c0,0.1,0.1,0.2,0,0.3c-0.1,0.3-0.2,0.6-0.3,0.9
				c0,0.1-0.1,0.2-0.2,0.4c-0.7,0.7-1.3,1.4-1.9,2.1c0.5,0.1,0.9,0.2,1.3,0.4C88,27.3,88,27.4,88,27.5z"/>
			<path class="st6" d="M92.6,24.2c-1.2,1.2-2.4,2.4-3.5,3.6c-0.1,0-0.3-0.1-0.4-0.1c0,0,0,0,0,0c1.1-1.3,2.2-2.5,3.5-3.7
				C92.3,24.1,92.5,24.1,92.6,24.2C92.6,24.2,92.6,24.2,92.6,24.2z"/>
			<path class="st6" d="M93.9,29.3c0,0.1-0.1,0.1-0.2,0.2c-0.1,0-0.2,0-0.3,0c-0.4-0.2-0.8-0.3-1.2-0.5c-0.1,0-0.2-0.1-0.2-0.2
				c0-0.1,0-0.2,0-0.3c0.5-1.2,0.9-2.4,1.4-3.7c0-0.1,0.1-0.1,0.2-0.2c0.1,0,0.2,0,0.3,0c0.4,0.2,0.9,0.3,1.3,0.5
				c0.1,0,0.2,0.1,0.2,0.2c0,0.1,0,0.2,0,0.3C94.9,26.9,94.4,28.1,93.9,29.3z M93.5,29.1c0.5-1.2,1-2.4,1.5-3.6
				c-0.4-0.2-0.7-0.3-1.1-0.5c-0.5,1.2-0.9,2.4-1.4,3.6C92.8,28.8,93.1,28.9,93.5,29.1z"/>
			<path class="st6" d="M96.7,30.6c0,0.1-0.1,0.1-0.2,0.2c-0.1,0-0.2,0-0.3,0c-0.4-0.2-0.7-0.4-1.1-0.5c-0.1,0-0.2-0.1-0.2-0.2
				c0-0.1,0-0.2,0-0.3c0.5-1.2,1.1-2.4,1.6-3.6c0-0.1,0.1-0.1,0.2-0.2c0.1,0,0.2,0,0.3,0c0.4,0.2,0.8,0.4,1.2,0.6
				c0.1,0,0.2,0.1,0.2,0.2c0,0.1,0,0.2,0,0.3c-0.2,0.3-0.3,0.6-0.5,0.9c-0.1-0.1-0.3-0.1-0.4-0.2c0.1-0.3,0.3-0.6,0.4-0.9
				c-0.3-0.2-0.7-0.3-1-0.5c-0.2,0.5-0.5,1-0.7,1.5c0.4,0.2,0.7,0.3,1.1,0.5c0.1,0,0.2,0.1,0.2,0.2c0,0.1,0,0.2,0,0.3
				C97.2,29.5,97,30,96.7,30.6z M96.3,30.4c0.3-0.5,0.5-1.1,0.8-1.6c-0.3-0.2-0.7-0.3-1-0.5c-0.3,0.5-0.5,1.1-0.8,1.6
				C95.7,30,96,30.2,96.3,30.4z"/>
			<path class="st6" d="M99.4,32.1c0,0.1-0.1,0.1-0.2,0.2c-0.1,0-0.2,0-0.3,0c-0.4-0.2-0.7-0.4-1.1-0.6c-0.1,0-0.1-0.1-0.2-0.2
				c0-0.1,0-0.2,0-0.3c0.2-0.3,0.4-0.7,0.6-1c0.1,0.1,0.3,0.1,0.4,0.2c-0.2,0.3-0.4,0.7-0.5,1c0.3,0.2,0.6,0.4,1,0.5
				c0.2-0.4,0.5-0.8,0.7-1.2c-0.2-0.3-0.3-0.6-0.5-1c0,0,0-0.1,0-0.1c0.4,0,0.7-0.1,1.1-0.1c0.2-0.3,0.4-0.7,0.6-1
				c-0.3-0.2-0.7-0.4-1-0.6c-0.2,0.3-0.3,0.6-0.5,0.9c-0.1-0.1-0.3-0.1-0.4-0.2c0.2-0.3,0.3-0.6,0.5-0.9c0-0.1,0.1-0.1,0.2-0.2
				c0.1,0,0.2,0,0.3,0.1c0.4,0.2,0.8,0.4,1.2,0.7c0.1,0.1,0.2,0.1,0.2,0.2c0,0.1,0,0.2,0,0.3c-0.2,0.3-0.4,0.6-0.6,1
				c-0.1,0.1-0.2,0.2-0.3,0.2c-0.2,0-0.5,0-0.7,0c0.1,0.2,0.2,0.4,0.3,0.6c0.1,0.1,0.1,0.3,0,0.4C99.9,31.3,99.7,31.7,99.4,32.1z"/>
		</g>
	</g>
	<g>
		<g>
			<path class="st7" d="M16,59.2c0.2,0,0.3,0.2,0.4,0.4c0.1,0.2,0.1,0.5,0,0.8c-0.3,1.2-0.5,2.5-0.8,3.7c-0.1,0.3-0.2,0.6-0.3,0.8
				c-0.2,0.2-0.3,0.3-0.5,0.2c-0.8-0.1-1.5-0.2-2.3-0.4c0.1-0.5,0.2-1,0.2-1.4c0.7,0.1,1.5,0.3,2.2,0.4c0.2-1.1,0.4-2.2,0.7-3.3
				c-0.7-0.2-1.4-0.3-2.1-0.5c-1.3,1.2-2.6,2.5-3.8,3.8c-0.3,0.3-0.5,0.4-0.8,0.4c-0.6-0.1-1.2-0.2-1.8-0.3c-0.2,0-0.3-0.2-0.4-0.4
				c-0.1-0.3-0.1-0.6,0-0.9c0.3-1.5,0.5-2.9,0.9-4.3c0.1-0.4,0.2-0.6,0.4-0.8c0.2-0.2,0.3-0.3,0.5-0.2c0.7,0.2,1.3,0.4,2,0.5
				c-0.1,0.5-0.2,0.9-0.3,1.4c-0.7-0.2-1.3-0.3-2-0.5c-0.3,1.2-0.5,2.4-0.7,3.7c0.6,0.1,1.2,0.2,1.9,0.3c1.3-1.4,2.5-2.6,3.9-3.8
				c0.3-0.2,0.5-0.3,0.8-0.2C14.7,58.9,15.4,59,16,59.2z"/>
			<path class="st7" d="M14.6,47.8c1.5,1.4,2.9,2.7,4.5,4c-0.1,0.3-0.3,0.7-0.4,1c-1.5-0.1-2.9-0.2-4.4-0.2c1.2,0.9,2.4,1.8,3.6,2.7
				c-0.1,0.3-0.2,0.7-0.3,1c-2,0-3.9,0.1-5.9,0.3c0.1-0.4,0.2-0.8,0.3-1.2c1.5,0,3,0,4.5,0c-1.2-0.9-2.5-1.8-3.7-2.7
				c0.1-0.4,0.2-0.7,0.4-1.1c1.5,0.1,3,0.2,4.5,0.3c-1.2-0.9-2.4-1.9-3.5-2.9C14.3,48.5,14.4,48.1,14.6,47.8z"/>
			<path class="st7" d="M14.6,44.8c-0.2,0.4-0.4,0.8-0.6,1.2c-0.3-0.1-0.6-0.3-0.9-0.4c0.2-0.4,0.4-0.8,0.6-1.2
				C14,44.5,14.3,44.6,14.6,44.8z M20.7,47.9c-0.2,0.3-0.3,0.7-0.5,1c-1.7-0.8-3.4-1.6-5.1-2.4c0.2-0.4,0.3-0.8,0.5-1.1
				C17.3,46.2,19,47,20.7,47.9z"/>
			<path class="st7" d="M15.8,39.2c-0.3,0.5-0.6,1.1-0.9,1.6c0.8,0.5,1.6,0.9,2.4,1.4c0.2-0.5,0.5-0.9,0.8-1.4
				c0.2,0.1,0.4,0.2,0.6,0.3c-0.3,0.4-0.5,0.9-0.7,1.3c1.4,0.8,2.9,1.6,4.3,2.4c-0.2,0.3-0.4,0.7-0.5,1c-1.4-0.8-2.9-1.6-4.3-2.4
				c-0.2,0.3-0.3,0.6-0.5,0.9c-0.2-0.1-0.4-0.2-0.6-0.3c0.2-0.3,0.3-0.6,0.5-1c-0.8-0.4-1.6-0.9-2.4-1.3c-0.4-0.2-0.4-0.6-0.1-1.3
				c0.3-0.6,0.7-1.2,1-1.8C15.4,39,15.6,39.1,15.8,39.2z"/>
			<path class="st7" d="M24.9,40.4c-0.3,0.4-0.6,0.9-0.9,1.3c-0.3,0.5-0.7,0.7-1.1,0.5c-1.2-0.8-2.4-1.5-3.6-2.3
				c-0.2,0.3-0.4,0.6-0.5,0.9c-0.2-0.1-0.4-0.2-0.6-0.4c0.2-0.3,0.4-0.6,0.6-0.9c-0.5-0.3-1-0.6-1.5-0.9c0.2-0.4,0.4-0.7,0.7-1.1
				c0.5,0.3,1,0.6,1.5,1c0.3-0.4,0.6-0.9,0.9-1.3c0.2,0.1,0.4,0.3,0.6,0.4c-0.3,0.4-0.6,0.9-0.8,1.3c1.2,0.8,2.4,1.6,3.6,2.3
				c0.3-0.4,0.5-0.8,0.8-1.2C24.5,40.1,24.7,40.3,24.9,40.4z"/>
			<path class="st7" d="M30.4,32.5c0.1,0.1,0.2,0.3,0.2,0.5c0,0.2-0.1,0.4-0.3,0.6c-0.8,0.8-1.5,1.7-2.2,2.5
				c-0.2,0.2-0.4,0.3-0.6,0.4c-0.2,0.1-0.4,0-0.5-0.1c-2-1.6-4-3.3-6.1-4.9c-0.1-0.1-0.2-0.3-0.2-0.5c0-0.2,0.1-0.5,0.3-0.7
				c0.8-1,1.7-2,2.5-2.9c0.2-0.2,0.4-0.4,0.6-0.4c0.2-0.1,0.4,0,0.5,0.1c0.5,0.5,1,1,1.5,1.5c-0.3,0.3-0.6,0.6-0.9,0.9
				c-0.5-0.5-1-0.9-1.5-1.4c-0.7,0.8-1.5,1.6-2.2,2.5c2,1.6,3.9,3.3,5.9,4.9c0.6-0.8,1.3-1.5,1.9-2.2c-0.8-0.7-1.5-1.4-2.3-2.1
				c-0.3,0.4-0.6,0.7-1,1.1c-0.2-0.2-0.3-0.3-0.5-0.5c0.6-0.7,1.2-1.3,1.8-2C28.5,30.7,29.5,31.6,30.4,32.5z"/>
			<path class="st7" d="M35.3,28.8c-0.3,0.2-0.5,0.5-0.8,0.7c0,0-0.1-0.1-0.1-0.1c-0.3,0.3-0.6,0.6-0.9,0.9
				c-0.3,0.4-0.6,0.7-0.9,0.9c-0.4,0.4-0.8,0.5-1.1,0.2c-1.2-1.2-2.4-2.4-3.6-3.6c0.3-0.3,0.6-0.5,0.8-0.8c1.1,1.2,2.3,2.4,3.4,3.6
				c0.6-0.6,1.1-1.1,1.7-1.6c-1.1-1.2-2.2-2.5-3.2-3.7c0.3-0.3,0.6-0.5,0.9-0.7C32.9,25.9,34.1,27.3,35.3,28.8z"/>
			<path class="st7" d="M37.5,22.3c-0.3,0.2-0.6,0.4-0.9,0.6c-0.2-0.3-0.5-0.6-0.7-0.9c-0.6,0.4-1.1,0.8-1.7,1.3c1,1.3,2,2.6,3,3.9
				c-0.3,0.2-0.6,0.4-0.8,0.7c-1.2-1.5-2.4-2.9-3.5-4.4c0.3-0.2,0.6-0.5,0.9-0.7c0,0,0.1,0.1,0.1,0.1c0.3-0.3,0.6-0.5,0.8-0.8
				c0.3-0.3,0.6-0.6,0.9-0.7c0.5-0.4,0.9-0.4,1.1,0C37,21.6,37.3,22,37.5,22.3z"/>
			<path class="st7" d="M44.3,22.6c-0.3,0.2-0.7,0.4-1,0.6c-1.1-0.5-2.2-0.9-3.4-1.3c0.5,0.8,1,1.6,1.6,2.4
				c-0.3,0.2-0.6,0.4-0.9,0.6c-1.7-2.5-3.4-5-5.1-7.5c0.3-0.2,0.7-0.4,1-0.7c1,1.6,2.1,3.2,3.1,4.8c0.2-1,0.4-2,0.6-3.1
				c0.4-0.2,0.7-0.4,1.1-0.6c0,0,0,0,0,0c-0.3,1.1-0.6,2.2-0.8,3.3C41.8,21.6,43.1,22.1,44.3,22.6z"/>
			<path class="st7" d="M49,20.2c-0.3,0.1-0.6,0.3-1,0.4c-0.7-1.5-1.4-3-2.2-4.4c-0.7,0.4-1.5,0.7-2.2,1.1c0.8,1.4,1.5,2.9,2.3,4.3
				c-0.3,0.2-0.6,0.3-0.9,0.5c-1.5-2.6-2.9-5.3-4.4-7.9c0.4-0.2,0.7-0.4,1.1-0.6c0.6,1.1,1.1,2.1,1.7,3.2c0.4-0.2,0.8-0.5,1.2-0.7
				c0.5-0.3,0.9-0.5,1.2-0.6c0.6-0.3,1-0.2,1.1,0.2C47.6,17.2,48.3,18.7,49,20.2z"/>
			<path class="st7" d="M54.4,18.2c-0.3,0.1-0.6,0.2-1,0.3c0,0,0-0.1-0.1-0.1c-0.4,0.2-0.8,0.4-1.1,0.5c-0.5,0.2-0.8,0.4-1.1,0.5
				c-0.5,0.2-0.9,0.1-1-0.2c-0.3-0.6-0.5-1.3-0.8-1.9c-0.2-0.4,0-0.7,0.6-0.9c0.8-0.3,1.6-0.6,2.4-0.9c-0.2-0.5-0.4-1.1-0.6-1.6
				c-0.8,0.3-1.5,0.6-2.3,0.8c0.1,0.3,0.2,0.6,0.4,0.9c-0.3,0.1-0.7,0.3-1,0.4c-0.1-0.3-0.3-0.6-0.4-0.9c-0.2-0.4,0-0.7,0.6-1
				c0.9-0.3,1.7-0.7,2.6-1c0.6-0.2,1-0.1,1.1,0.3C53.3,15.1,53.8,16.6,54.4,18.2z M53.2,17.8c-0.2-0.6-0.5-1.2-0.7-1.9
				c-0.8,0.3-1.5,0.6-2.3,0.9c0.3,0.6,0.5,1.2,0.8,1.9C51.7,18.4,52.4,18.1,53.2,17.8z"/>
			<path class="st7" d="M59.8,16.6c-0.4,0.1-0.7,0.2-1.1,0.3c-0.8-2.9-1.6-5.8-2.3-8.7c0.4-0.1,0.8-0.2,1.2-0.3
				C58.4,10.8,59.1,13.7,59.8,16.6z"/>
			<path class="st7" d="M65.8,15.5c-0.3,0-0.7,0.1-1,0.1c-0.3-1.6-0.5-3.2-0.8-4.8c-0.8,0.1-1.6,0.3-2.4,0.5c0.3,1.6,0.6,3.2,1,4.8
				c-0.3,0.1-0.7,0.1-1,0.2c-0.4-1.8-0.8-3.6-1.2-5.5c0.4-0.1,0.7-0.2,1.1-0.2c0,0.1,0,0.1,0,0.2c0.4-0.1,0.9-0.2,1.3-0.4
				c0.5-0.1,1-0.2,1.3-0.3c0.6-0.1,1,0.1,1,0.5C65.3,12.2,65.5,13.9,65.8,15.5z"/>
			<path class="st7" d="M69.9,15.1c-0.5,0-1,0.1-1.5,0.1c-0.6,0.1-0.9-0.1-0.9-0.6c-0.2-1.4-0.3-2.8-0.5-4.2c-0.3,0-0.7,0.1-1,0.1
				c0-0.2-0.1-0.4-0.1-0.7c0.3,0,0.7-0.1,1-0.1c-0.1-0.6-0.1-1.2-0.2-1.7c0.4,0,0.8-0.1,1.1-0.1C68,8.5,68,9.1,68.1,9.7
				c0.5,0,1-0.1,1.5-0.1c0,0.2,0,0.4,0,0.7c-0.5,0-1,0.1-1.4,0.1c0.1,1.4,0.3,2.8,0.4,4.2c0.4,0,0.9-0.1,1.3-0.1
				C69.9,14.7,69.9,14.9,69.9,15.1z"/>
			<path class="st7" d="M75.3,14.3c0,0.4-0.3,0.6-0.9,0.6c-0.8,0-1.7,0-2.5,0c-0.6,0-0.9-0.2-0.9-0.6c-0.1-1.4-0.2-2.9-0.2-4.3
				c0-0.4,0.3-0.7,0.9-0.7c0.9,0,1.8-0.1,2.7,0c0.6,0,1,0.2,0.9,0.7c0,0.7,0,1.3,0,2c-0.1,0.1-0.2,0.2-0.4,0.3c-1,0-2,0-3,0
				c0,0.7,0.1,1.3,0.1,2c0.8,0,1.5,0,2.3,0c0-0.3,0-0.7,0-1c0.3,0,0.7,0,1,0C75.3,13.6,75.3,14,75.3,14.3z M74.3,11.7
				c0-0.6,0-1.1,0-1.7c-0.8,0-1.6,0-2.4,0c0,0.6,0,1.1,0.1,1.7C72.7,11.7,73.5,11.7,74.3,11.7z"/>
			<path class="st7" d="M81.2,11.6c-0.4,0-0.7-0.1-1.1-0.1c0-0.4,0.1-0.8,0.1-1.1c-0.7,0-1.4-0.1-2.1-0.1c-0.1,1.6-0.2,3.2-0.3,4.9
				c-0.3,0-0.7,0-1,0c0.1-1.9,0.2-3.7,0.2-5.6c0.4,0,0.8,0,1.1,0.1c0,0.1,0,0.1,0,0.2c0.4,0,0.8,0,1.1,0c0.5,0,0.8,0,1.1,0
				c0.6,0.1,0.9,0.3,0.9,0.7C81.3,10.7,81.2,11.1,81.2,11.6z"/>
			<path class="st7" d="M86.2,16.1c-0.3-0.1-0.7-0.1-1-0.2c0.3-1.6,0.6-3.2,0.9-4.8c-0.8-0.1-1.6-0.2-2.5-0.3
				c-0.2,1.6-0.5,3.2-0.7,4.8c-0.3,0-0.7-0.1-1-0.1c0.2-1.8,0.5-3.7,0.7-5.5c0.4,0,0.8,0.1,1.1,0.1c0,0.1,0,0.1,0,0.2
				c0.4,0,0.9,0,1.3,0.1c0.5,0,1,0.1,1.3,0.2c0.6,0.1,0.9,0.4,0.8,0.8C86.8,12.8,86.5,14.4,86.2,16.1z"/>
			<path class="st7" d="M91.8,17.4c-0.3-0.1-0.7-0.2-1-0.3c0,0,0-0.1,0-0.1c-0.4-0.1-0.8-0.1-1.2-0.2c-0.5-0.1-0.9-0.1-1.2-0.2
				c-0.6-0.1-0.8-0.4-0.7-0.8c0.2-0.7,0.3-1.3,0.5-2c0.1-0.4,0.4-0.6,1.1-0.4c0.8,0.2,1.7,0.4,2.5,0.6c0.2-0.5,0.3-1.1,0.5-1.6
				c-0.8-0.2-1.6-0.4-2.4-0.6c-0.1,0.3-0.2,0.6-0.2,0.9c-0.4-0.1-0.7-0.2-1.1-0.2c0.1-0.3,0.1-0.6,0.2-0.9c0.1-0.4,0.5-0.6,1.1-0.4
				c0.9,0.2,1.8,0.4,2.7,0.7c0.6,0.2,0.9,0.5,0.7,0.9C92.7,14.2,92.2,15.8,91.8,17.4z M91,16.5c0.2-0.6,0.4-1.3,0.5-1.9
				c-0.8-0.2-1.6-0.4-2.4-0.6c-0.2,0.7-0.3,1.3-0.5,2C89.5,16.1,90.2,16.3,91,16.5z"/>
			<path class="st7" d="M95.8,18.7c-0.5-0.2-0.9-0.3-1.4-0.5c-0.6-0.2-0.8-0.5-0.6-0.9c0.5-1.4,0.9-2.7,1.4-4.1
				c-0.3-0.1-0.6-0.2-0.9-0.3c0.1-0.2,0.1-0.4,0.2-0.6c0.3,0.1,0.6,0.2,1,0.3c0.2-0.6,0.4-1.1,0.6-1.7c0.4,0.1,0.7,0.2,1.1,0.4
				c-0.2,0.5-0.4,1.1-0.6,1.6c0.5,0.2,0.9,0.3,1.4,0.5c-0.1,0.2-0.2,0.4-0.2,0.6c-0.5-0.2-0.9-0.3-1.4-0.5c-0.5,1.3-1,2.7-1.4,4
				c0.4,0.1,0.9,0.3,1.3,0.4C95.9,18.3,95.9,18.5,95.8,18.7z"/>
			<path class="st7" d="M100.5,13.2c-0.4-0.1-0.7-0.3-1.1-0.4c0.1-0.3,0.2-0.6,0.4-0.9c0.4,0.1,0.7,0.3,1.1,0.4
				C100.8,12.6,100.6,12.9,100.5,13.2z M97.8,19.5c-0.3-0.1-0.6-0.3-1-0.4c0.7-1.7,1.4-3.5,2.1-5.2c0.3,0.1,0.7,0.3,1,0.4
				C99.3,16,98.5,17.7,97.8,19.5z"/>
			<path class="st7" d="M103.5,21.4c-0.2,0.4-0.6,0.4-1.1,0.2c-0.8-0.4-1.6-0.8-2.4-1.1c-0.5-0.2-0.7-0.6-0.5-0.9
				c0.6-1.3,1.2-2.6,1.8-3.9c0.2-0.4,0.6-0.5,1.1-0.2c0.9,0.4,1.7,0.8,2.6,1.2c0.6,0.3,0.8,0.6,0.6,1
				C104.9,18.9,104.2,20.1,103.5,21.4z M102.6,20.9c0.7-1.3,1.3-2.5,2-3.8c-0.7-0.4-1.5-0.7-2.2-1.1c-0.6,1.3-1.2,2.6-1.8,3.9
				C101.2,20.2,101.9,20.5,102.6,20.9z"/>
			<path class="st7" d="M108.2,25c-0.3-0.2-0.6-0.4-0.9-0.6c0.9-1.4,1.8-2.8,2.7-4.1c-0.7-0.4-1.4-0.9-2.2-1.3
				c-0.8,1.4-1.7,2.8-2.5,4.2c-0.3-0.2-0.6-0.3-0.9-0.5c0.9-1.6,1.9-3.2,2.8-4.9c0.3,0.2,0.7,0.4,1,0.6c0,0-0.1,0.1-0.1,0.1
				c0.4,0.2,0.8,0.4,1.2,0.6c0.5,0.2,0.9,0.5,1.2,0.7c0.5,0.3,0.7,0.7,0.4,1C110.1,22.2,109.2,23.6,108.2,25z"/>
			<path class="st7" d="M112.9,28.4c-0.3-0.2-0.5-0.4-0.8-0.7c0,0,0.1-0.1,0.1-0.1c-0.4-0.2-0.7-0.5-1.1-0.7c-0.4-0.3-0.8-0.5-1-0.7
				c-0.5-0.3-0.6-0.7-0.3-1c0.4-0.6,0.8-1.1,1.2-1.7c0.3-0.4,0.6-0.3,1.1,0c0.7,0.5,1.4,1,2.1,1.6c0.4-0.4,0.7-0.9,1.1-1.3
				c-0.6-0.5-1.3-1-2-1.5c-0.2,0.3-0.4,0.5-0.6,0.8c-0.3-0.2-0.6-0.4-0.9-0.6c0.2-0.3,0.4-0.5,0.6-0.8c0.3-0.4,0.6-0.3,1.2,0
				c0.7,0.5,1.5,1.1,2.2,1.7c0.5,0.4,0.6,0.8,0.3,1.1C115.1,25.9,114,27.2,112.9,28.4z M112.6,27.2c0.4-0.5,0.8-1,1.3-1.6
				c-0.6-0.5-1.3-1-2-1.5c-0.4,0.5-0.8,1.1-1.2,1.6C111.3,26.3,111.9,26.7,112.6,27.2z"/>
			<path class="st7" d="M114.9,30.1c-0.3-0.2-0.5-0.5-0.8-0.7c2-2.3,4-4.5,6-6.8c0.3,0.3,0.6,0.5,0.9,0.8
				C119,25.7,116.9,27.9,114.9,30.1z"/>
			<path class="st7" d="M124.9,34.7c-0.1,0.1-0.3,0.1-0.5,0.1c-0.2-0.1-0.4-0.2-0.6-0.4c-0.7-0.8-1.4-1.7-2.1-2.4
				c-0.9,0.8-1.8,1.6-2.7,2.4c-0.3-0.3-0.5-0.6-0.8-0.8c2.2-2.1,4.4-4.1,6.6-6.2c1.1,1.2,2.1,2.4,3.1,3.6c0.2,0.2,0.3,0.5,0.3,0.7
				c0,0.2,0,0.4-0.2,0.5C127,33,125.9,33.8,124.9,34.7z M124.1,33.7c1-0.9,2.1-1.7,3.1-2.6c-0.7-0.8-1.4-1.6-2.1-2.4
				c-1,0.9-2,1.8-3,2.7C122.9,32.1,123.5,32.9,124.1,33.7z"/>
			<path class="st7" d="M129.7,39.3c-2,0.4-3.9,0.8-5.8,1.3c-0.2-0.3-0.4-0.6-0.6-0.8c1.2-1.6,2.3-3.3,3.3-5.1
				c0.2,0.3,0.5,0.7,0.7,1c-0.9,1.3-1.8,2.5-2.8,3.8c1.5-0.4,3-0.9,4.5-1.2C129.3,38.6,129.5,38.9,129.7,39.3z"/>
			<path class="st7" d="M127,45.9c-0.3-0.5-0.5-1-0.8-1.4c-0.3-0.6-0.3-0.9,0.1-1.2c1.2-0.7,2.5-1.5,3.7-2.2
				c-0.2-0.3-0.4-0.6-0.5-0.9c0.2-0.1,0.4-0.2,0.6-0.4c0.2,0.3,0.4,0.6,0.6,0.9c0.5-0.3,1-0.6,1.5-0.9c0.2,0.4,0.4,0.7,0.6,1.1
				c-0.5,0.3-1,0.6-1.5,0.9c0.3,0.5,0.5,0.9,0.8,1.4c-0.2,0.1-0.4,0.2-0.6,0.3c-0.2-0.5-0.5-0.9-0.7-1.4c-1.2,0.7-2.5,1.4-3.7,2.1
				c0.2,0.4,0.5,0.9,0.7,1.3C127.4,45.7,127.2,45.8,127,45.9z"/>
			<path class="st7" d="M130.5,54.3c-0.5-1.4-1-2.9-1.6-4.2c2.7-1.2,5.5-2.5,8.2-3.7c0.2,0.4,0.4,0.9,0.5,1.3
				c-2.6,1.1-5.1,2.2-7.7,3.2c0.4,1,0.8,2.1,1.1,3.1C131,54.1,130.7,54.2,130.5,54.3z"/>
			<path class="st7" d="M131.8,58.7c-0.1-0.6-0.3-1.1-0.5-1.7c-0.2-0.7-0.1-1.1,0.3-1.2c1.4-0.4,2.7-0.9,4.1-1.3
				c-0.1-0.4-0.2-0.7-0.4-1.1c0.2-0.1,0.4-0.1,0.6-0.2c0.1,0.4,0.2,0.7,0.4,1.1c0.6-0.2,1.1-0.4,1.7-0.5c0.1,0.4,0.3,0.9,0.4,1.3
				c-0.6,0.2-1.1,0.3-1.7,0.5c0.2,0.6,0.3,1.1,0.5,1.7c-0.2,0.1-0.4,0.1-0.6,0.2c-0.1-0.6-0.3-1.1-0.5-1.7c-1.4,0.4-2.7,0.8-4.1,1.2
				c0.1,0.5,0.3,1,0.4,1.6C132.3,58.6,132,58.6,131.8,58.7z"/>
			<path class="st7" d="M133.2,65.2c-0.1-0.4-0.1-0.9-0.2-1.3c0.1,0,0.1,0,0.2,0c-0.4-1.4-0.6-2.1-0.6-2.2c-0.1-0.5-0.1-1,0-1.4
				c0.1-0.4,0.4-0.6,0.7-0.7c1.1-0.3,2.1-0.5,3.2-0.8c0.3-0.1,0.7,0,1,0.4c0.3,0.3,0.5,0.8,0.7,1.4c0.2,0.8,0.3,1.5,0.4,2.3
				c1.1-0.2,2.2-0.4,3.3-0.6c0.1,0.5,0.2,1,0.2,1.5C139.1,64.3,136.1,64.8,133.2,65.2z M133.7,63.8c1.4-0.3,2.8-0.5,4.2-0.8
				c-0.1-0.6-0.2-1.3-0.4-1.9c-0.2-0.8-0.4-1.1-0.9-1c-1,0.2-1.9,0.4-2.9,0.7c-0.4,0.1-0.5,0.5-0.4,1.2
				C133.3,62.2,133.4,62.8,133.7,63.8z"/>
		</g>
	</g>
	<g>
		<path class="st8" d="M7.8,69.2c0.1,0.2,0.1,0.4,0.2,0.6l-0.6,0.6l1,1L9,70.8C9.2,70.9,9.4,71,9.6,71v0.9H11V71
			c0.2-0.1,0.4-0.1,0.6-0.2l0.6,0.6l1-1l-0.6-0.6c0.1-0.2,0.2-0.4,0.2-0.6h0.9v-1.4h-0.9c-0.1-0.2-0.1-0.4-0.2-0.6l0.6-0.6l-1-1
			l-0.6,0.6c-0.2-0.1-0.4-0.2-0.6-0.2v-0.9H9.6v0.9c-0.2,0.1-0.4,0.1-0.6,0.2l-0.6-0.6l-1,1l0.6,0.6c-0.1,0.2-0.2,0.4-0.2,0.6H7v1.4
			H7.8z M8.8,68.9c-0.2-1.1,0.7-2,1.8-1.8c0.6,0.1,1.1,0.6,1.2,1.2c0.2,1.1-0.7,2-1.8,1.8C9.4,69.9,8.9,69.4,8.8,68.9z"/>
		<path class="st9" d="M8.5,68.3c-0.2,1.2,0.9,2.3,2.1,2.1c0.8-0.1,1.4-0.7,1.5-1.5c0.2-1.2-0.9-2.3-2.1-2.1
			C9.2,66.9,8.6,67.5,8.5,68.3z M8.8,68.9c-0.2-1.1,0.7-2,1.8-1.8c0.6,0.1,1.1,0.6,1.2,1.2c0.2,1.1-0.7,2-1.8,1.8
			C9.4,69.9,8.9,69.4,8.8,68.9z"/>
	</g>
	<g>
		<path class="st8" d="M135.3,69.2c0.1,0.2,0.1,0.4,0.2,0.6l-0.6,0.6l1,1l0.6-0.6c0.2,0.1,0.4,0.2,0.6,0.2v0.9h1.4V71
			c0.2-0.1,0.4-0.1,0.6-0.2l0.6,0.6l1-1l-0.6-0.6c0.1-0.2,0.2-0.4,0.2-0.6h0.9v-1.4h-0.9c-0.1-0.2-0.1-0.4-0.2-0.6l0.6-0.6l-1-1
			l-0.6,0.6c-0.2-0.1-0.4-0.2-0.6-0.2v-0.9h-1.4v0.9c-0.2,0.1-0.4,0.1-0.6,0.2l-0.6-0.6l-1,1l0.6,0.6c-0.1,0.2-0.2,0.4-0.2,0.6h-0.9
			v1.4H135.3z M136.3,68.9c-0.2-1.1,0.7-2,1.8-1.8c0.6,0.1,1.1,0.6,1.2,1.2c0.2,1.1-0.7,2-1.8,1.8C136.9,69.9,136.4,69.4,136.3,68.9
			z"/>
		<path class="st9" d="M136,68.3c-0.2,1.2,0.9,2.3,2.1,2.1c0.8-0.1,1.4-0.7,1.5-1.5c0.2-1.2-0.9-2.3-2.1-2.1
			C136.7,66.9,136.1,67.5,136,68.3z M136.3,68.9c-0.2-1.1,0.7-2,1.8-1.8c0.6,0.1,1.1,0.6,1.2,1.2c0.2,1.1-0.7,2-1.8,1.8
			C136.9,69.9,136.4,69.4,136.3,68.9z"/>
	</g>
	<g>
		<path class="st8" d="M40.2,131.1c0.1,0.2,0.1,0.4,0.2,0.6l-0.6,0.6l1,1l0.6-0.6c0.2,0.1,0.4,0.2,0.6,0.2v0.9h1.4v-0.9
			c0.2-0.1,0.4-0.1,0.6-0.2l0.6,0.6l1-1l-0.6-0.6c0.1-0.2,0.2-0.4,0.2-0.6H46v-1.4h-0.9c-0.1-0.2-0.1-0.4-0.2-0.6l0.6-0.6l-1-1
			l-0.6,0.6c-0.2-0.1-0.4-0.2-0.6-0.2v-0.9H42v0.9c-0.2,0.1-0.4,0.1-0.6,0.2l-0.6-0.6l-1,1l0.6,0.6c-0.1,0.2-0.2,0.4-0.2,0.6h-0.9
			v1.4H40.2z M41.2,130.7c-0.2-1.1,0.7-2,1.8-1.8c0.6,0.1,1.1,0.6,1.2,1.2c0.2,1.1-0.7,2-1.8,1.8C41.8,131.8,41.3,131.3,41.2,130.7z
			"/>
		<path class="st9" d="M40.9,130.2c-0.2,1.2,0.9,2.3,2.1,2.1c0.8-0.1,1.4-0.7,1.5-1.5c0.2-1.2-0.9-2.3-2.1-2.1
			C41.6,128.8,41,129.4,40.9,130.2z M41.2,130.7c-0.2-1.1,0.7-2,1.8-1.8c0.6,0.1,1.1,0.6,1.2,1.2c0.2,1.1-0.7,2-1.8,1.8
			C41.8,131.8,41.3,131.3,41.2,130.7z"/>
	</g>
	<g>
		<path class="st8" d="M105,130.4c0.1,0.2,0.1,0.4,0.2,0.6l-0.6,0.6l1,1l0.6-0.6c0.2,0.1,0.4,0.2,0.6,0.2v0.9h1.4v-0.9
			c0.2-0.1,0.4-0.1,0.6-0.2l0.6,0.6l1-1l-0.6-0.6c0.1-0.2,0.2-0.4,0.2-0.6h0.9V129h-0.9c-0.1-0.2-0.1-0.4-0.2-0.6l0.6-0.6l-1-1
			l-0.6,0.6c-0.2-0.1-0.4-0.2-0.6-0.2v-0.9h-1.4v0.9c-0.2,0.1-0.4,0.1-0.6,0.2l-0.6-0.6l-1,1l0.6,0.6c-0.1,0.2-0.2,0.4-0.2,0.6h-0.9
			v1.4H105z M106,130c-0.2-1.1,0.7-2,1.8-1.8c0.6,0.1,1.1,0.6,1.2,1.2c0.2,1.1-0.7,2-1.8,1.8C106.6,131,106.1,130.6,106,130z"/>
		<path class="st9" d="M105.7,129.4c-0.2,1.2,0.9,2.3,2.1,2.1c0.8-0.1,1.4-0.7,1.5-1.5c0.2-1.2-0.9-2.3-2.1-2.1
			C106.4,128,105.8,128.6,105.7,129.4z M106,130c-0.2-1.1,0.7-2,1.8-1.8c0.6,0.1,1.1,0.6,1.2,1.2c0.2,1.1-0.7,2-1.8,1.8
			C106.6,131,106.1,130.6,106,130z"/>
	</g>
</g>
</svg>
